<?xml version="1.0" encoding="utf-8"?>
<!-- Generator: Adobe Illustrator 25.1.0, SVG Export Plug-In . SVG Version: 6.00 Build 0)  -->
<svg version="1.1" id="Layer_1" xmlns="http://www.w3.org/2000/svg" xmlns:xlink="http://www.w3.org/1999/xlink" x="0px" y="0px"
	 viewBox="0 0 265 200" style="enable-background:new 0 0 265 200;" xml:space="preserve">
<style type="text/css">
	.st0{fill:#FFFFFF;}
	.st1{fill:#D3D3D3;}
</style>
<g>
	<path class="st0" d="M130.5,190c-36.6-36.5-73-72.8-109.4-109.1c5.4-5.4,10.9-10.8,16.3-16.3c30.7,30.7,61.5,61.5,92.4,92.5
		c37.9-37.9,75.5-75.5,113.2-113.2c4,3.6,6.3,7.8,7.2,12.7c1.3,8-1.1,14.8-6.7,20.5c-28.6,28.6-57.1,57.1-85.7,85.7
		c-8.7,8.7-17.4,17.5-26.2,26.2C131.2,189.4,130.8,189.8,130.5,190z"/>
	<path class="st1" d="M21.5,41.7c3.1-3.4,7.2-5.7,12-6.5c8.1-1.4,15,0.9,20.8,6.7c18.3,18.3,36.6,36.6,54.9,55
		c0.5,0.5,0.8,1.1,1.3,1.8c1.1-1.3,2-2.2,2.8-3.2c-6.3-6.3-12.7-12.7-19.1-19.2c0.5-0.6,0.8-0.9,1.1-1.2
		c9.6-9.5,19.1-19.1,28.7-28.6c7.3-7.2,19.4-7.7,27.3-1c2.9,2.5,5.6,5.3,8.3,8c4.5,4.4,8.9,8.9,13.4,13.3c0.9,0.9,0.9,1.5,0,2.4
		c-7.8,7.7-15.6,15.4-23.4,23.2c-5.7,5.6-11.2,11.4-16.9,17c-6.9,6.9-13.9,13.9-20.8,20.8c-0.4,0.4-0.8,0.7-1,1
		C81.1,101.3,51.4,71.6,21.5,41.7z M127.6,76.1c0.8,0.8,1.7,1.8,2.7,2.9c2.9-2.9,5.6-5.7,8.3-8.5c2.7-2.7,2.7-2.7-0.3-5.2
		c0,0-0.1,0,0,0C134.8,69,131.2,72.5,127.6,76.1z"/>
	<path class="st1" d="M130.2,150.6c-5.4-5.4-10.8-10.8-16.4-16.4c0.3-0.3,0.7-0.8,1.1-1.2c21.2-21.2,42.5-42.5,63.7-63.7
		c1-1,0.9-1.6-0.1-2.5c-5.7-5.6-11.4-11.3-17.1-17c-0.4-0.4-0.8-0.9-1.2-1.3c0.2-0.3,0.3-0.5,0.4-0.6c9.6-9.6,19.1-19.3,28.9-28.6
		c8.5-8,22.8-7.1,30.5,1.5c0.1,0.1,0.2,0.3,0.3,0.5c-9,9-18,18-27.1,27c-0.1,0.3-0.2,0.6-0.3,0.9c0.7,0.4,1.6,0.7,2.1,1.3
		c0.9,1,1.4,1,2.4,0c7.1-7.1,14.2-14.2,21.3-21.3c1.6-1.6,3.2-3.2,4.6-4.6c5.6,5.6,11.1,11.1,16.5,16.5
		C203.4,77.4,166.7,114,130.2,150.6z"/>
	<path class="st0" d="M17.7,45.1c5.5,5.5,11,11,16.3,16.3c-5.3,5.4-10.8,10.8-16.2,16.2C8.3,69.7,8.4,52.9,17.7,45.1z"/>
	<path class="st0" d="M107.6,56.4c-5.5,5.4-10.9,10.8-16.4,16.3c-0.1-0.1-0.5-0.3-0.7-0.6c-4.8-4.8-9.6-9.7-14.5-14.5
		c-0.7-0.7-1-1.2-0.1-2c8.4-8,22.8-8,31.1,0C107.3,55.9,107.5,56.2,107.6,56.4z"/>
</g>
</svg>
