<?xml version="1.0" encoding="utf-8"?>
<!-- Generator: Adobe Illustrator 25.1.0, SVG Export Plug-In . SVG Version: 6.00 Build 0)  -->
<svg version="1.1" id="Layer_1" xmlns="http://www.w3.org/2000/svg" xmlns:xlink="http://www.w3.org/1999/xlink" x="0px" y="0px"
	 viewBox="0 0 265 200" style="enable-background:new 0 0 265 200;" xml:space="preserve">
<style type="text/css">
	.st0{fill:#BA4125;}
	.st1{fill:#2E0A0B;}
	.st2{fill:#606060;}
</style>
<g id="Group_1" transform="translate(643.786 173.839)">
	<path id="Path_1" class="st0" d="M-939.2-87.2c-1.7-1.2-3.9-1.2-5.5,0c-2.8,1.9-5.8,0.7-8.6,0.6c-4,0-8-1-12,0.2
		c-0.5,0.1-1,0.2-1.1,0.8c-1.9,0.1-3.8-0.4-5.5-1.4c-1-0.5-2.4-1.6-1.9-2.9c0.3-1.5,0.3-2.9,0.1-4.4c0.1-1.3,0-1.7,1.4-1.2
		c0.6,0.3,1.2,0.1,1.5-0.4c0.2-0.3,0.1-0.6-0.2-0.9c-2.5-2.7-1.1-6-1.1-9c0-2.4,1.3-4.9-1.2-7c-1.2-1,0-3.2,1.6-3.9
		c1.4-0.6,2.9,0.2,4.7-0.4c-1.9-1.3-4-1-5.6-1.8c-0.6-0.3-1.7,0.1-1.9-0.9s0.6-1.4,1.2-2c2.3-1.9,2.1-4.1-0.2-6
		c-0.9-0.7-2.5-2.1-0.6-3c2.6-1.3,0.6-1.9-0.2-2.6c-0.5-0.5-1.4-0.5-1.3-1.5c0.4-1.9,2-3.4,4-3.8c7.4-0.2,14.9,0,22.3,0.4
		c9.1,0.5,18.2,0.9,27.3,2.4c12.7,2,25.1,5.3,37.1,9.9c12.4,4.9,24.1,11.5,34.7,19.5c9.2,7,17,15.5,23.1,25.3
		c7,10.8,12,22.7,15,35.2c2.7,12.7,3.6,25.7,2.7,38.6c0,0.7-0.1,1.3-1,1.5c0.3-7.2,0.3-14.3-1.9-21.2c-0.7-2.3-1.1-4.9-3.4-6.6
		c-0.9-1.1-1.4-2.5-1.5-3.9c-0.1-1.6-0.6-3.1-1.4-4.5c-0.5-1.1-1.3-1-2.1-0.8c-0.9,0.3-0.5,1.2-0.4,1.7c0.7,3.2,1.8,6.3,2.1,9.5
		c0.8,7.2,2.6,14.3,2.4,21.5c0,0.6,0.2,1.3-0.5,1.9c-0.9-16.8-2.4-33.4-13.3-47.2c1,3.4,0.6,7.2,2.5,10.4c1,1.7,0.8,3.6,1.4,5.4
		c1.3,3.3,2.4,6.6,3.4,10c2.5,11.4,3.3,23.2,2.3,34.8c-0.1,0.5-0.3,1-0.7,1.3c0-4.5,0-9,0-13.4c-0.2-6.9-1.1-13.8-2.8-20.5
		c-1.9-9-5.3-17.7-10-25.6c-4-7.2-9.3-13.6-15.6-19c-6.6-5.4-13.2-11.4-21.5-14c-4.1-1.3-7.7-4.3-12.3-4.1c-0.1,0-0.2,0-0.2,0
		c-4.5-2-9.5-2.1-14.3-3.1c-3.1-0.7-6.9-2.8-10.5-0.6c-0.7,0.4-1.7-1-2.9-0.7c0.3,0.4,0.9,0.8,0.8,1.1c-0.1,0.6-0.8,0.6-1.2,0.6
		c-1,0-1.9-0.6-2.4-1.5c-0.8-1.2-2.5-1.5-3.6-0.7c-0.4,0.2-0.6,0.6-0.8,1c-0.5,1.2-1.2,0.7-2,0.6c-1.6-0.4-3.3-0.1-4.7,0.9
		c0.4,0.2,0.8,0.4,1.1,0.5c0.7,0.3,2.1,0.3,1.8,1.4c-0.4,1.3-1.2,0.4-1.9,0c-0.2-0.1-0.5-0.1-0.7,0.1c-2.2,2.9-5.1,1.9-8,1.5
		c-0.6-0.1-1.2,0-1.7,0.4C-936.3-87.7-937.7-87.2-939.2-87.2L-939.2-87.2z"/>
	<path id="Path_2" class="st0" d="M-861.6,88.8c2.2-0.3,2.8-2.4,4.1-3.7c1.7-1.8,3.6-3.4,5.6-5c-0.1,1.5-0.8,2.9-2,3.8
		c-6.4,5.1-11.5,11.6-18,16.6c-6.5,5.1-13.4,9.5-20.4,13.9c-7.8,4.8-16,8.8-24.5,12c-2.2,0.8-4.6-0.9-6.5,1.1
		c-0.2-0.1-0.4-0.3-0.5-0.5c-0.3-0.6,0.2-0.7,0.6-0.8c1.5-0.4,2.9-0.8,4.4-1.2c6.8-2,13.4-4.7,19.6-8.1c9.5-5,18.3-11.3,25.9-18.9
		c6.2-6.1,11.6-12.7,14.9-20.9c2.6-6.9,3.8-14.2,3.7-21.5c0-3.7-1-7.3-0.6-11c0-0.2,0.1-0.4,0-0.5c-2.2-2.2-0.8-5-1.3-7.5
		c-0.4-3-1.2-5.8-2.4-8.6c-1.3-2.5-1.6-5.5-3.7-7.7c-0.9-1-1.1-2.7-1.8-3.9c-1.1-1.9-3.3-2.9-4.3-5c-0.3-0.7-0.6-2.1-2.1-1.7
		c-0.5,0.1-0.5-0.3-0.5-0.8c-0.1-2-0.1-2-2.3-1.9c-0.3,0-0.5-0.1-0.6-0.4c0-0.1,0-0.1,0-0.2c0.3-2.8-1.6-3.7-3.6-5
		c-3-1.9-5.2-4.7-8.5-6.4c-1.4-0.9-2.9-1.6-4.5-1.8c-0.4,0-0.8-0.1-1.2-0.3c-3.9-3.3-8.7-5.5-13.7-6.4c-2.4-0.5-4.7-1.4-7.1-1.8
		c-0.7-0.1-1.4-0.2-1.6,0.5c3.5,0.9,6.7,2.7,10.1,4c4.9,1.8,9.6,4.4,13.7,7.7c0.5,0.4,1.2,0.1,1.6,0.4c0.5,0.3,1.5,0.1,1.3,1.1
		c0,0.4-0.2,0.8-0.5,1.1c-0.6,0.3-1.1-0.3-1.5-0.7c-5.6-4.5-11.9-7.9-18.7-10.1c-8.4-2.9-17.1-4.8-25.9-5.7
		c-2.9-0.3-5.8-0.9-8.7-1.3c0-0.3,1-0.5,0.5-0.6c-3.6-0.4-6.9-1.9-10.4-2.6c-2.2-0.2-4.3-1-6-2.4c-1.3-1.2-0.2-2.4,0.4-3.6
		c0-0.1,0-0.2,0-0.2c-0.9-2.2,0.7-4.6-0.8-6.7c-1-1.5,0-3.4-0.6-5c-1.1-2.7,0.5-5.8-1.4-8.3c0-0.1,0-0.2,0-0.2
		c1.8-2.5-2.2-4.6-0.3-7.1c-2.2-1.7-1.1-4.1-1.5-6.2c-0.4-2.4,0.6-3.6,3-3.6c6.3-0.1,12.5,1.1,18.8,1.1c3.7,0.1,7.4,0.5,11,1.1
		c5,0.7,10,1.7,14.8,3.1c4,1.1,8.1,2,12,3.4c15.5,5.5,29.2,15.1,39.8,27.6c13,15.3,20.9,32.6,21.4,53c0.3,11.4-0.5,22.6-4.1,33.5
		c-3.5,10.5-9.3,19.7-15.6,28.7c-1.1,1.6-2.7,2.8-3.1,4.8c-0.7,0-1.2,0.6-1.2,1.2v0.1c0.9,0,1.1-0.6,1.2-1.3c1.2-0.3,2.3-1,3-2
		C-861.7,89.3-861.2,89.4-861.6,88.8L-861.6,88.8z M-868.6,95.9c0.1-0.2,0.6-0.3,0.1-0.6L-868.6,95.9l-0.1,0.2L-868.6,95.9z
		 M-867,93.5c-0.1,0.1-0.3,0.1-0.4,0.2c0,0.1,0.1,0.3,0.1,0.4l0.5-0.3L-867,93.5z"/>
	<path id="Path_3" class="st1" d="M-810.5-5.9c0.9-0.2,1-0.8,1-1.5c1-12.9,0.1-26-2.7-38.6c-2.9-12.5-8-24.4-15-35.2
		c-6.1-9.8-13.9-18.4-23.1-25.3c-10.6-8-22.3-14.6-34.7-19.5c-12-4.6-24.4-7.9-37.1-9.9c-9.1-1.4-18.1-1.8-27.3-2.4
		c-7.4-0.4-14.9-0.6-22.3-0.4c-2,0.3-3.5,1.8-4,3.8c-0.1,1.1,0.8,1.1,1.3,1.5c0.8,0.7,2.8,1.3,0.2,2.6c-1.9,0.9-0.3,2.3,0.6,3
		c2.3,1.9,2.5,4.1,0.2,5.9c-0.7,0.5-1.5,0.9-1.2,2c0.2,1,1.3,0.6,1.9,0.9c1.6,0.9,3.7,0.5,5.6,1.8c-1.8,0.6-3.2-0.2-4.7,0.4
		c-1.6,0.7-2.8,2.8-1.6,3.9c2.5,2.1,1.2,4.6,1.2,7c0,3-1.4,6.2,1.1,9c0.2,0.3,0.4,0.5,0.2,0.9c-0.3,0.5-1,0.7-1.5,0.4
		c-1.3-0.5-1.3-0.1-1.4,1.2c0.2,1.5,0.1,3-0.1,4.4c-0.5,1.3,0.9,2.4,1.9,2.9c1.7,1,3.6,1.4,5.5,1.4l1.3,0.1c0.8,1.2,1.9,0.9,3,0.7
		l7.7,1.1l0.6,1l-4-0.4l-0.6-0.1c-8-0.5-15.8-1.9-23.4-4.4c-8.3-2.6-12.2-8.3-13.4-16.8c-1.7-12.2-4.1-24.3-5.9-36.5
		c-0.6-4.2-1.7-8.4-1.7-12.7c0-1.1-0.3-2.6,1.3-2.9c1.5-0.3,2,0.9,2.4,2c1.9,4.8,5.8,7.2,10.5,8.7c9.1,3,18.6,3.4,28.1,4
		c18.4,1.2,36.9,2.7,54.9,7c19.9,4.5,38.7,12.9,55.2,24.9c15.6,11.4,27.7,26.9,35.1,44.8c0.6,1.5,1.3,3,1.8,4.5c0.3,1.6,1,3,1.9,4.3
		c-0.2-2.2-1.3-4.4,0.2-6.6c1.5-1.8,2.5-3.9,3-6.1c1.1,1.8-0.3,3.4-0.2,4.9c0.9,0.3,0.9-0.7,1.4-0.8c0.7,2.1-0.1,4.4-2,5.6
		c-0.8,0.6-1.3,1.6-1.1,2.7c0.1,0.9,0.9,1.2,1.7,1.1c0.9-0.1,1.7-0.4,1.7-1.5c-0.2-0.8-0.1-1.7,0.1-2.5c0.7-1.2,0.7-3,3.2-1.9
		c1.6,0.7,3.8,0.1,6,0.1c-1,1.9-3.1,2.9-5.2,2.5c-2.2-0.4-3.2,0.3-3.4,2.6c-0.2,1.6-1.6,2.7-3.1,2.6h-0.1c-1.6-0.2-1.8,0.7-1.3,1.7
		c2.6,6.1,3.1,12.7,3.8,19.1c1.2,10.8,0.7,21.7-1.5,32.3c-0.4,2.4-1.1,4.7-2.2,6.9c-0.3-0.4-0.5-0.9-0.8-1.3
		c0.2-1.2,0.4-2.4,0.6-3.6C-810.3-1-809.2-3.4-810.5-5.9l0-0.2L-810.5-5.9z M-809.2-63.2c-0.3,0.4-1.2,0.7-0.5,1.2
		c0.5,0.4,0.7-0.4,0.9-0.8c0.1-0.3,0.5-0.5,0.2-0.8C-809-63.8-809.1-63.5-809.2-63.2z"/>
	<path id="Path_4" class="st0" d="M-991.6,119.5l5,2.1l0,0c2.6,2.6,6.2,3.2,9.5,3.9c0.6,0.1,1.3-0.4,1.5,0.7
		c0.1,0.2,0.4,0.3,0.6,0.3c2.4-1.1,4.1,1.3,6.5,1.2c2.4-0.1,5,1.2,7.5,0.7c3.4-0.6,6.8,0.7,10.1,0.1c1-0.2,2.2,0.6,3-1.1
		c0.5-1.1,1.1,0.7,2.1,0.6c2.9-0.4,5.8-0.9,8.6-1.6c8.4-2,16.6-4.8,24.4-8.4c3.6-1.8,7.1-3.8,10.3-6.1c-13.5,6.4-27,12.5-42.4,13.9
		c0.4-1.1,1.2-0.6,1.7-1c-0.1-0.1-0.2-0.1-0.2-0.1c-5.9,0.1-11.9,0.3-17.9,0c-2.8-0.3-5.5-0.9-8.2-1.6c-2.5-0.5-5-0.7-6.7-3.1
		c-0.5-0.7-0.8,0.3-0.9,0.7c-0.4,1.3-1.1,0.4-1.5,0.2c-0.6-0.4,0.2-0.5,0.3-0.7c0.5-1.2-0.5-1.9-1.1-1.5c-3,1.9-4.1-1-5.8-2.1
		c-0.7-0.5-0.6-1.5-1.9-0.6c-0.8,0.5-3.1-1-3.1-1.7c0.1-1.6-1-2-1.7-2.8c-0.2-0.2-0.9-0.6-0.2-0.8c1.8-0.4,0.5-0.9,0.1-1.3
		c-2.2-2.3-4.7-4.3-6.1-7.3c1.1-2.8,2.7-5.4,4.7-7.7c3.6,5.1,8.5,9.2,14.2,11.9c0,1.4,1.2,1.7,2.1,2.2c5.4,2.6,11.3,4,17.4,4.3
		c6,0.3,11.5-2.6,17.4-2.4c0.8,0,0.2-1.9,1.2-1.5c1.6,0.6,3-0.4,4.5-0.6c-0.2,0.9-0.7,1.7-1.4,2.3c-0.6,0.6,0.1,0.7,0.6,0.8
		c3.8-0.1,7.4-1.4,11.1-2.2c2-0.4,4-1,6-1.6c0.6,0.7,1.1,0.9,1.4-0.2v0.1c4,0.2,8-0.6,11.6-2.3c5-2,10-4,15.1-5.8c2.8-1,5.2-2.9,8-4
		c2.1-0.8,3.2-0.3,2.8,2.1v-0.1l-0.5,0.6c0,0.6-0.3,1.1-0.9,1.5c-14.5,12.3-30.5,21.8-48.9,26.9c-13.4,4-27.6,4.6-41.3,1.9
		c-7-1.3-13.5-4.1-19.2-8.3C-991.8,119.8-991.7,119.6-991.6,119.5z M-974,118.6l-8.7-3.1l-0.2,0.7
		C-980.1,117.3-977.4,119.1-974,118.6L-974,118.6z M-986.8,113.5c-1.2-0.8-2.1-2.3-3.8-2.3C-989.7,112.5-988.3,113.3-986.8,113.5
		L-986.8,113.5z"/>
	<path id="Path_5" class="st1" d="M-865.1,91.3c0.4-2,2-3.2,3.1-4.8c6.3-9,12.1-18.2,15.6-28.7c3.6-10.9,4.4-22.1,4.1-33.5
		c-0.6-20.4-8.4-37.7-21.4-53c-10.6-12.6-24.3-22.1-39.8-27.6c-3.9-1.4-8-2.3-12-3.4c-4.9-1.3-9.8-2.4-14.8-3.1
		c-3.6-0.6-7.3-1-11-1.1c-6.3,0-12.5-1.2-18.8-1.1c-2.4,0-3.4,1.2-3,3.6c0.3,2.1-0.8,4.6,1.5,6.2c-1.9,2.4,2.1,4.6,0.3,7.1
		c0,0.1,0,0.2,0,0.2c1.9,2.5,0.4,5.6,1.4,8.3c0.6,1.6-0.4,3.6,0.6,5c1.5,2.2,0,4.6,0.8,6.7c0,0.1,0.1,0.2,0,0.2
		c-0.6,1.2-1.7,2.4-0.4,3.6c1.7,1.4,3.8,2.2,6,2.4c3.5,0.6,6.8,2.1,10.4,2.6c0.5,0.1-0.5,0.2-0.5,0.6c-6.4-0.7-12.7-2.1-18.9-3.9
		c-8.1-2.3-12.6-7.6-14-16c-2-11.6-4-23.2-5.7-34.9c-0.1-0.7-0.2-1.5-0.2-2.3c0-0.5,0.1-1,0.7-1.2c0.5-0.2,1.1,0,1.3,0.5
		c2.4,5.3,7.6,5.9,12.3,7.1c8.6,2.3,17.5,3,26.4,3.9c10.2,0.7,20.3,2.4,30.1,5c9.4,2.6,18.5,6.4,26.9,11.4
		c16.4,9.8,28.1,23.7,36.5,40.5c4.2,9,6.7,18.7,7.3,28.6c1.3,16.1-0.7,31.7-7.5,46.4c-3.2,7.2-7.4,13.9-12.4,19.9
		c-0.5,0.6-1.2,1.2-1.3,2.1v-0.1c-0.4,0-0.6,0.2-0.5,0.6C-862.8,90.4-863.8,91.1-865.1,91.3L-865.1,91.3z"/>
	<path id="Path_6" class="st1" d="M-937.2,111.3c-0.5,0-1.2-0.2-0.6-0.8c0.7-0.6,1.2-1.4,1.4-2.3c-1.6,0.3-2.9,1.2-4.5,0.6
		c-1-0.4-0.3,1.5-1.2,1.5c-5.9-0.2-11.4,2.7-17.4,2.4c-6-0.3-11.9-1.8-17.4-4.3c-1-0.5-2.1-0.8-2.1-2.2c0.6-2,3.1-2.9,3.1-5.2
		c0.9-0.1,1.8-0.3,2-1.4l1.4-2.3c4-2.8,1.9-6.3,1.3-9.7c0.5-0.5,1.9,1.1,1.8-0.6c-0.1-1.2,0.5-1.4,1.2-1.7c1-0.5,1.6-1.6,1.4-2.7
		c-0.1-3.7-0.1-7.4-0.2-11.2c0-0.7,0.2-1.4-0.6-1.7c-1.2-0.5-0.8-1.3-0.4-2.1c1.3-2.2,0.3-4.5-0.2-6.6c-0.3-1.2-0.8-1.6,0.4-2.4
		c0.5-0.5,0.5-1.4,0-1.9l-0.1-0.1c-0.9-0.9-1.3,0-1.7,0.6c-1.6,2.6-4.7,3.4-6.2,5.9c-1-0.7-0.3-1.8-0.9-2.4
		c-0.4-2.2,0.6-4.4,2.4-5.7c2.3-1.8,4.4-3.9,6.5-5.9c0.3-0.3,0.9-0.6,0.9-0.8c-0.2-2,1.1-1.8,2.2-1.3c1.2,0.6,1.2,2.2,0.9,3
		c-1.3,4.3-1.5,8.9-0.7,13.3c0.2,1.1-0.9,2.1-0.4,3.6c0.2,0.7-0.3,2-0.4,3c0.5,1.1,1.3,2.1,0.9,3.5c-0.2,0.7,0.2,1.2,1.1,1.2
		c0.1,1,1.2,0.3,1.5,0.9c0.2,0.4,0.5,1.4,1,0.2c0.2-0.5,1.5-1.7-0.5-1.8V74c1.1,1,1.4-0.2,1.9-0.7c1.3-1.3,3.2-1.6,4.9-0.9
		c1.8,0.7,3,2.3,3.3,4.1c0.1,0.5,0.5,1.5-0.5,1.6c-0.9,0.1-0.5-0.9-0.6-1.4c-0.2-1.5-1.3-2.7-2.7-2.9c-0.9-0.3-2,0.2-2.3,1.1
		c-0.1,0.1-0.1,0.3-0.1,0.5c-0.1,0.8-0.1,1.6,0.8,1.9c1.4,0.5,1.4-1.1,2.1-1.6c1.1,1.4,0.9,3.4-0.5,4.5l-0.1,0.1
		c-1.2,1.1-3,1-4.1-0.1c-0.5-0.5-1.3-0.5-1.9-0.1c-0.7,0.5-1.7,0.4-2.3-0.3c0.4-1,2.2-0.8,2-2.2c-0.1-0.1-0.3-0.3-0.3-0.3
		c-0.9,0.7-2.7-0.3-3,1.1c-0.2,1.4,1,2.6,2,3.5c1.7,1.5,4.2,2,6.3,1.1c0.6-0.2,1-0.9,1.8-0.4c-1.5,1.6-3.5,2.8-4.5,5
		c-0.2,0.5-0.7,0.8-0.4,1.4s0.6,1.1,1.5,1c1.1-0.2,2.3-0.3,3.5-0.5c4.3-0.7,8.6-0.7,12.9,0.1c1.7,0,3.4,0.6,4.8,1.6
		c-0.5,0.9-1.5,0.5-2,1.2l-2-0.2c-2.3-0.7-4.7-0.7-7,0c-11,1.6-21.1,7-28.6,15.3c2.9,1.2,5.9,2,9,2.5c8.7,1,17.5-0.2,25.6-3.5
		c4.2-1.6,8.6-3,12-6.1c1.9-1,3.7-2.3,5.2-3.8c0.5-0.5,0.8-1.7,1.9-0.9C-926,102.3-931.4,106.9-937.2,111.3z M-958.9,84.6
		c-2.5-0.3-4.9-1.5-6.5-3.5c0.7,2.8-0.4,5.3,0.9,7.7L-958.9,84.6z"/>
	<path id="Path_7" class="st0" d="M-981.6,21.8c0.8-0.8,1.8-1.5,2.1-2.7l-0.1-0.1l0.1-0.1c0.5-0.7,1.6-0.2,1.9-1.1l0,0
		c2.9-2.4,5.8-4.9,8.7-7.3c0.5-0.7,1.4-0.9,2.1-0.6c-1.8,1.1-2.7,2.8-4.4,3.7s-2.6,2.7-3.9,4c-5.9,5.7-11.1,12.1-15.5,19
		c-5.4,8.5-7.8,17.9-8.8,27.7c-1,7.8-0.1,15.7,2.6,23c0.7,1.8,1,3.9,3.8,2.5c0.1,0,0.3,0.3,0.5,0.5c-6.7,5.6-14,10.3-21.8,14.2
		c-1.5-0.4-2.8-1.1-4-2c-2.8-2.3-3.1-5.2-1-8.7c0.2,1.2,0.6,1.1,1.5,0.4c1.3-1.2,3-1.8,4.8-1.6c2.6,0.7,5-0.5,7.5-0.3
		c1,0.1-0.2-0.5-0.1-0.8c2.1,0.4,2.9,0,2.2-2.4c-1.7-6.7-2.1-13.6-1.1-20.4c0.1-0.5,0.3-1-0.1-1.4l0,0c0.8-1.2,0.9-2.7,0.5-4.1l0,0
		c-0.1-0.8,0.9-0.7,1.1-1.5c1.5-6,3.7-11.7,6.5-17.2h-0.1c0.4-0.2,0.7-0.6,0.5-1.1v0.1c0.6-0.1,0.6-0.6,0.5-1.1v0.1
		c0.5,0.1,0.5-0.3,0.5-0.6l-0.1,0.1l3-5.3c1.1-1.2,1.8-2.7,2.1-4.4c0.4-1.1,1.6-2.1,0.1-3.2c0.2-0.2,0.7-0.4,0.7-0.6
		c0.2-2.5,1.1-2.1,2.3-0.6c2.2-1.3,3.9-3.3,5-5.6l-0.1,0.1C-981.6,22.4-981.5,22.1-981.6,21.8L-981.6,21.8z M-997.6,91.5
		c-1.5,0-2.8-0.1-4.1,0c-1,0.1-2.1,0.2-0.7,1.5c0.4,0.4,0.2,1.2,1.2,1.3C-1001.6,91.5-998.9,92.9-997.6,91.5L-997.6,91.5z"/>
	<path id="Path_8" class="st0" d="M-890.2,93.3c-1-1-2.2-0.4-3.3-0.4c-4.3,0.1-8.5-0.3-12.4-2.6c-4.5-2.8-6.6-9.4-4.1-13.1
		c1.5,0.1,3.2,1.4,4.3-1c0.4-0.8,1.8-0.7,2.7,0c2.5,1.6,5.5,2.3,8.4,1.9c4.8-0.5,9.6-0.9,14.5-1.3c0.7-0.1,0.6-0.4,0.3-0.8
		c4.3-0.8,8.5-2.2,12.5-4.1c0.7-0.3,1.4-0.9,2.3-0.6c-1.8,2.3-3.7,4.5-5.8,6.5c-4.2,4.1-8.6,7.9-13.4,11.3c-0.3-0.2-0.6-0.3-0.9-0.3
		c-6.7,0.3-13.4,0.4-20.4-1.9c2.4,2.3,4.6,3.8,7.4,4c3.4,0.3,6.9,0.4,10.3,0.5C-888.4,92.2-889.2,92.9-890.2,93.3z"/>
	<path id="Path_9" class="st1" d="M-879.8,75.9c0.2,0.4,0.3,0.7-0.3,0.8c-4.8,0.5-9.6,0.8-14.5,1.3c-2.9,0.5-5.9-0.2-8.4-1.9
		c-0.9-0.6-2.3-0.8-2.7,0c-1.1,2.4-2.7,1.2-4.3,1c2.6-6.6,5.9-12.9,9.9-18.8c2.8-4.5,7.3-7.6,12.5-8.6c2.4-0.6,4.9,0,6.8,1.6
		c-1.3,0.2-1.4,1.2-1.4,2.2c0,0.6,0.6,1.2,0.2,1.9c-0.2,0.4-1.1,0.9-0.1,1.3c0.6,0.2,1.1-0.3,1.2-0.9c0.3-1.2,1.2-2.2,1.2-3.5
		c0.5,0.7,1.1,1.2,0.6,2.2c-1.9,3.9-3.6,7.9-5.4,11.9c-0.6,1.1-1.3,2.1-2.2,3c-0.8,0.9-2.1,0.9-2.5-0.3c-1.2-3.3-3.8-3.4-6.5-3
		c-1.7,0.2-4.1,0.2-4.6,2.2c-0.5,2.1,1.2,3.8,2.9,4.9c3.7,2.4,7.8,2.8,12.1,2.8c1,0,2,0,3,0c0.4,0.2,0.8,0.2,1.2-0.1H-879.8z"/>
	<path id="Path_10" class="st0" d="M-922.6,95.7c-1.1-0.8-1.4,0.4-1.9,0.9c-1.5,1.5-3.3,2.8-5.2,3.8c0-3.9-1-5.3-4.7-6.7
		c-1.4-0.5-2.8-0.9-4.3-1.3c0.4-0.7,1.5-0.2,2-1.2c-1.4-1.1-3.1-1.6-4.8-1.6c-4.3-0.8-8.6-0.8-12.9-0.1c-1.1,0.2-2.3,0.3-3.5,0.5
		c-0.9,0.2-1.2-0.3-1.5-1c-0.4-0.7,0.2-0.9,0.4-1.4c0.9-2.2,3-3.4,4.5-5h0.1c1.1,0.3,1.4-0.5,1.8-1.2c3-0.6,5.8-2.2,8.8-2.8
		c5.7-1.2,11.6-1.1,17.3,0.3c1.7,0.4,3.3,1.2,4.7,2.2c2.9,1.8,4.1,5.4,2.8,8.6C-919.9,91.9-921.1,93.9-922.6,95.7z M-928.7,82.8
		c-3.4-5.6-8.3-3.3-13.3-2.6c3.9,1.4,7.7,2,11.3,3.3c2.2,0.8,2.4,0.3,9.1,6.3c0.5-0.7,0-1.6,0.3-2.2c0.8-1.4,0.6,1.1,1.2,0.5
		c0.6-4-2.6-5.3-4.8-7.2c-0.9-0.8-2.2,0.6-3.5,0.2C-928.5,81.2-927.9,82.1-928.7,82.8L-928.7,82.8z"/>
	<path id="Path_11" class="st1" d="M-890.2,93.3c1-0.4,1.8-1.1,2.4-2l0,0l0.6-0.4l3-2c4.7-3.4,9.2-7.2,13.4-11.3
		c2.1-2,4.1-4.2,5.8-6.5c0.8-0.6,1.5-1.3,2.1-2c0.5-0.6,0.9-1.4,1.7-1c0.6,0.4,0.5,1.4,0.2,2.1c-1,1.9-1.9,3.9-2.6,6
		c-3.2,8.8-10.2,14.6-16.6,20.9c-0.2,0.2-0.6,0.2-0.9,0.3c0.4-2.4-0.7-2.9-2.8-2.1c-2.8,1-5.1,3-8,4c-5.1,1.8-10.1,3.7-15.1,5.8
		c-3.6,1.7-7.6,2.5-11.6,2.3c0.1-0.7,0.7-0.7,1.1-0.8C-907.9,103.3-898.7,98.8-890.2,93.3z"/>
	<path id="Path_12" class="st0" d="M-976.9,60.7c0.6,0.6-0.1,1.7,0.9,2.4c1.6-2.5,4.7-3.3,6.2-5.9c0.4-0.6,0.8-1.5,1.7-0.6
		c0.6,0.5,0.7,1.3,0.2,1.9l-0.1,0.1c-1.1,0.8-0.7,1.3-0.4,2.4c0.5,2,1.5,4.3,0.2,6.6c-0.4,0.8-0.8,1.6,0.4,2.1
		c0.8,0.3,0.6,1.1,0.6,1.7c0.1,3.7,0.1,7.4,0.2,11.2c0.2,1.1-0.4,2.2-1.4,2.7c-0.8,0.4-1.3,0.6-1.2,1.7c0.1,1.6-1.3,0.1-1.8,0.6
		c0.5,3.4,2.7,7-1.3,9.7c-0.6-0.3-1.5-0.6-1.4-1.3c0.4-2.7,0.2-5.5-0.7-8.1c-0.6-1.9-0.1-3.9-1.2-6.4c0,2.3,0,4,0,5.6
		c0.1,2.9,1.8,5.7,0.7,8.8c-0.7,1.4-0.2,3,1.1,3.8c-0.2,1.1-1,1.4-2,1.4c-0.6-12.5-1.3-25-1.1-37.6C-977,62.5-976.9,61.6-976.9,60.7
		z"/>
	<path id="Path_13" class="st1" d="M-1014.4,104.5c7.8-3.8,15.2-8.6,21.8-14.2c1.3,0,1.1,0.8,0.8,1.5c-0.4,0.9-0.9,1.7-1.5,2.5
		c-2,2.3-3.6,4.9-4.7,7.7c-1.4,1-3,1.8-4.7,2.4c-0.7-0.3-1.4-0.3-2.1,0.1c-6.1,2.7-12.3,5.4-18.5,7.9c-1.5,0.9-3.2,1.1-4.8,0.5
		C-1023.6,110-1018.7,107.7-1014.4,104.5z"/>
	<path id="Path_14" class="st0" d="M-823.8,28.7c1.4,1.4-0.4,2.7,0.8,4l2.4-3.4c1.1,0.9,0.1,1.8,0.3,2.8l1.6-2.3
		c1,0.6,0.5,1.2,0.3,1.7c-3.7,9-8.5,17.5-14.1,25.5c-4.1,6.1-8.6,12-13.3,17.7c-1.3,1.6-3.2,2.5-4.1,4.5c-0.2,0.4-0.6,0.5-0.9,0.4
		c0,0-0.1,0-0.1-0.1c-0.5-0.3-0.2-0.8,0.1-1.1c1.2-1.4,2.3-2.9,3.5-4.3c6.2-7,11.7-14.7,16.2-23c1.3-2.4,1.3-5.5,2.5-8.1
		C-826.9,38.4-825.2,33.6-823.8,28.7z M-826.9,41.7c2.1-2.3,2.7-5.2,3.3-8C-825.7,35.9-825.9,39-826.9,41.7z M-830,48.1
		c0,0.1-0.1,0.1-0.1,0.2c0,0.1,0.1,0.1,0.1,0.2c0-0.1,0.1-0.1,0.1-0.2S-830,48.1-830,48.1L-830,48.1z"/>
	<path id="Path_15" class="st0" d="M-939.6,132.4c0-1,0.5-1.6,2-1.6c6.5,0.1,13.1,0,19.6,0c8.8,0,17.7,0,26.5,0
		c9.6,0,19.1-0.1,28.7-0.1c1.2-0.1,2.4,0.1,3.5,0.7c-1.1,0.9-2.5,1.4-4,1.3c-7.4-0.1-14.8-0.2-22.1-0.4c-3.1,0.2-6.2,0.1-9.3-0.1
		c-0.2,0-0.6-0.1-0.7,0c-2.4,2.8-5.1,0.6-7.7,0.6c-5.4,0.2-10.7-0.6-16.1-0.4c-3.9,0.2-7.9-0.1-11.9-0.1
		C-933.9,132.4-936.7,132.4-939.6,132.4z"/>
	<path id="Path_16" class="st0" d="M-1028,113c1.6,0.5,3.4,0.3,4.8-0.5c6.2-2.6,12.3-5.2,18.5-7.9c0.6-0.4,1.4-0.4,2.1-0.1
		c-4.4,3-8.9,5.8-13.6,8.4c-0.2,0.1-0.5,0.5-0.6,0.4c-2-1.3-2.1,0.9-3,1.6c-0.1,0-0.1,0.1-0.1,0.2c0-0.1-0.1-0.2-0.1-0.3
		c0.7-0.2,1.7-0.7,1.1-1.4c-0.7-0.8-1.5-0.1-1.9,0.7c-1.7-0.5-2.7,1-4.1,1.4c-4.1,1.4-8.3,2.8-12.3,4.4c-2,0.8-3.6,2.7-5.9,3.1l0,0
		C-1038.4,119.3-1033.3,115.9-1028,113z"/>
	<path id="Path_17" class="st0" d="M-811.6,5.4c0.3,0.4,0.5,0.9,0.8,1.3c-1.2,4.4-2.4,8.9-3.6,13.3c-0.6-0.5-0.9-1.5-1.8-1.7
		c-1.3-0.2-1.5-0.9-1.2-2c0.1-0.5,0.3-1-0.4-1.1c-0.6-0.1-1.2-0.2-1.4,0.6c-0.2,0.5-0.5,1-0.4,1.4c0.6,3.4-1.9,5.9-2.7,8.9
		c1.9-7.7,3.3-15.5,4.9-23.3c-0.4,2.9-0.7,5.9-1.1,8.8c-0.1,1.1-0.7,2.2,1,2.5s1.1-1.1,1.4-1.8c2.3-6,2.5-12.5,3.6-18.8
		c0.6-3.5,0.1-7.3,0.1-11c2,3.9,0.5,7.8,0.3,11.7c-0.1,1,0,1.9,0.9,1.9c1,0.1,1-0.9,0.7-1.7c1.1,2.6,0,5-0.5,7.4
		c-0.1-0.3-0.1-0.7-0.1-1c0-0.9,0.1-2-0.8-2.1c-1.2-0.1-0.9,1.3-0.9,1.9c-0.5,4.5-1.3,8.9-2.4,13.3c-0.2,0.6-0.9,1.6,0.3,1.9
		c1,0.3,1.1-0.7,1.4-1.4C-812.6,11.5-812,8.4-811.6,5.4z"/>
	<path id="Path_18" class="st1" d="M-807.2-73.3c5.5,3.1,10.8,2.4,16.2-0.7c-1.4,0.5-2.2-0.8-2.6-1.4c-1.2-1.7-1.8,1.2-2.5,0.2
		c-0.8-1.2-1.4-1.8-2.6,0c-0.4-1.7,0.2-3.4,1.5-4.5c1.4-0.8,3.1-0.6,4.2,0.5c1.1,0.7,2.3,1.3,3.5,1.9c2.9,1.7,2.9,2.3,0.8,5.1
		c2.6,0.6,2.9,1.2,2,3.7c-1,3-3.8,3.6-6.1,4.7l-0.8-0.3c1.9-1.2,3.8-2.4,5.6-3.7c0.5-0.4,1.1-0.9,0.8-1.7c-0.3-0.7-1.1-0.2-1.5-0.4
		c-3.7-1.6-6.2,2-9.5,1.9c-0.3-2-2-1.5-3.2-1.9C-803.7-70.6-806.1-70.8-807.2-73.3z"/>
	<path id="Path_19" class="st1" d="M-1009.1,54.4c-0.8,1.5-1.4,3.1-3.4,3.3c-1.5-0.7-0.3-2.3-1.1-3.3c-0.3,0.1-0.7,0.2-0.9,0.4
		c-1.4,1.8,0.4,3.1,0.9,4.6l-0.2,0.7V60c-0.3-0.6-1.8,1.3-1.5-0.7c0.1-0.7-0.1-1.6-0.7-1.7c-1,0-0.7,1.2-1.3,1.7
		c0.3-1.9-0.6-3.9,0.6-5.6c0.9-1.4,1.3-3,1.2-4.6c0-1.7-0.9-3.5,0.6-5c0.4-0.3-0.3-0.9-0.6-1.3c-0.8-1-0.1-1.8,0.4-2.8
		c0.9,1.2,2,2.1,3.3,2.8c1.3,0.8,2.5,1.8,3.4,2.9c0.7,1,0.7,3.1,2.9,1.6c0.2-0.1,2.7,1.2,1.6,2.6c-1.2,1.6-0.5,2.2,0.9,2.9
		c-1.6,0.7-2.8,1-3.2-0.9c-0.1-0.3,0.1-0.7-0.4-0.7c-0.4,0-0.8,0.4-0.8,0.8l0,0C-1007.3,53.7-1008.3,54-1009.1,54.4
		c-0.9-0.8,0.3-1.3,0.4-2c0.1-1.4,1-2.9-0.8-3.9c-0.1-0.2-0.3-0.2-0.4,0c-1.4,0.3,0.3,1.7-0.8,2.1c-0.2-0.6-0.8-0.7-1.3-0.9l0.5-1.2
		c2-0.2,0-1.1,0.2-1.6c0.1-0.2,0.3-1.4-0.7-0.7c-0.1,0.1-0.1,0.4-0.1,0.7l-0.9-0.2c-0.4-0.4-0.8-0.5-0.6,0.2
		c0.1,0.5-0.8,1.7,0.8,1.4c0.2,0.5-0.1,1.3,0.6,1.6c-0.2,0.6,0.4,1.8-1.2,1.4c-0.9-0.3-1,0.5-1,1.2c-0.4,0-0.5,0.3-0.6,0.6
		c-0.4,0.1-0.6,0.5-0.5,0.9v0.1c-0.3,0.1-0.6,0.3-0.3,0.6c0.2-0.1,0.3-0.2,0.5-0.4c0.4-0.1,0.6-0.5,0.5-0.9l0.5-0.6
		c0.5,1.1,1.1,1.2,1.9,0.3c1.1,0.8-0.1,2.2,0.8,3.1C-1010.2,56.2-1010.5,54.2-1009.1,54.4z"/>
	<path id="Path_20" class="st1" d="M-990.1,32.3c-0.3,1.6-1,3.1-2.1,4.4c-1.1-0.9-0.4-2-0.4-3c0-0.6,0.4-1.3-0.2-1.6
		c-0.8-0.4-1.3,0.4-1.9,0.7c-0.6,0.3-1.5,1-1.1,1.4c1.7,1.9,0.3,3.2-0.5,4.8c-0.2,0.4-0.6,1.2,0,1.2c1.7-0.1,0.5,1.4,1.1,1.8
		l0.1-0.1c-0.2-0.2-0.5-0.2-0.6,0c-0.1,0.1-0.1,0.1-0.1,0.2c-0.3-0.7-1.2-1-1.9-0.6c0,0-0.1,0-0.1,0.1c-2,1.4-3.6,3.4-4.5,5.7
		c-1.2-2-1.4-4.4-0.6-6.5c0.3-0.7,1.1-1.3,0.8-2.2h-0.1c0.6,0.2,0.6-0.2,0.5-0.6h-0.1c2.5-2.5,4.7-5.2,6.7-8.1h-0.1l0.6-0.7h0.2
		l0.1-0.1c0.1,0.4,0.2,0.8,0.2,1.2c0,0.6,0.1,1,0.8,1c0.8,0,0.6-0.6,0.6-1.1c0-0.9-0.1-1.8-0.2-2.8c-0.6-2.3,0-4.7,1.6-6.4
		c0.6-0.1,0.6,1.2,1.5,0.8l0.1-0.1c0.1,0.8,0.6,0.9,1.3,1l0,0c0.3,0.5,0.6,1.1,1.3,0.5h-0.1c0.4,1.5,0.5,3,0.1,4.5
		c-1.2-1.5-2.1-1.9-2.3,0.6c0,0.2-0.4,0.4-0.7,0.6c-0.5-1.4-1.1-2.9,0.7-4.1c-1-0.1-1.3-1.1-2.3-0.9
		C-991.7,28.7-991.4,30.7-990.1,32.3z M-997,35l-0.5,0.6c-0.2,0.2-0.7,0.3-0.3,0.8l0,0c-0.7-0.4-0.7,0.3-0.9,0.6
		c-0.9,0.2-0.5,1.2-1,1.7c-1.7,1.2-2.8,3.1-3,5.1c1-1.5,2.9-2.4,3.5-4.3h-0.1c0.5,0.2,0.7,0,0.6-0.6h-0.1c0.5,0.2,0.6-0.2,0.7-0.6
		c1.2-0.3,0.8-1.1,0.6-1.8l0.3-0.6c0.3,0,0.5-0.2,0.5-0.5l0,0c0.2-0.2,0.6-0.3,0.3-0.7C-996.6,34.4-996.8,34.8-997,35L-997,35z"/>
	<path id="Path_21" class="st1" d="M-1028,68.5c2.8,0.2,5.6,0,8.4-0.6c-2.9-1.2-3.9-5.1-8-2.5c0.6-1.5,1.4-2.9,2.5-4
		c1-1.2,2.3-0.9,3.4-0.1c1.6,1.1,3,2.4,4.6,3.5c1.8,1.2,3.9,2,6,2.4c0.8,0.1,2.4-0.5,2.2,0.7c0,1.5-1.2,2.7-2.6,2.9
		c-2.3,0.2-4.5,0.3-6.8,0.5c-1.3,0.1-2.7,0.2-4,0.3c0.1-1.5-0.8-1.7-2-1.9C-1025.5,69.5-1027.1,70-1028,68.5z"/>
	<path id="Path_22" class="st0" d="M-953.9-82.7l-0.6-1c6.9,0.1,13.7,0.7,20.5,1.6c4.4,0.5,8.8,1.1,13.2,1.9
		c9.6,1.6,19,4.3,27.9,8.1c1.8,0.8,3.6,1.4,5.3,2.2c0.7,0.3,1.6,0.6,1.8,1.6c-0.5,0.7-0.9,0.2-1.3,0c-14.4-6.7-29.8-10.9-45.6-12.3
		C-939.7-81.4-946.8-82-953.9-82.7z"/>
	<path id="Path_23" class="st0" d="M-887.4-0.2c2.5,1,4.8,2.2,5.8,4.9c0.4,0.9,1,1.7,1.9,2.2c3.2,2.5,4.7,6.2,6.5,9.6
		c2,3.8,3.7,7.8,5,11.9c1.1,3.2,1.9,6.4,2.6,9.6c0.3,1.4,0.6,2.2,2.2,1.7c0.5-0.1,1-0.1,1.5,0c1,0,2.5-0.3,2.6,1.1
		c0.1,1.2-1.4,1.2-2.3,1.4c-0.2,0-0.3,0.1-0.5,0.1c-4.1,0.5-4.1,0.5-4.9-3.4c-2.9-14.5-8.8-27.4-19.8-37.5c-0.4-0.3-0.7-0.7-1-1.1
		L-887.4-0.2z"/>
	<path id="Path_24" class="st1" d="M-1040.6,67.8c-1.2,1.8-1.6,4.1-4.4,4.7c-3.6,0.7-6.2-1.6-5.5-5.2c0-0.3,0.1-0.7,0.2-1
		c0.6-1.6,0.4-3.8,2.8-4.3s4.8,0.5,6.1,2.5c0.4,0.5,0.7,1.1,1,1.7C-1040.4,66.8-1040.5,67.3-1040.6,67.8z M-1043,67.9
		c-0.9-1.5-2.7-2.2-4.4-1.8c-0.6,0.1-1.3,0.1-1.3,0.8c-0.1,0.7,0.6,1,1.1,1.2C-1046.1,68.9-1044.4,68.8-1043,67.9L-1043,67.9z"/>
	<path id="Path_25" class="st1" d="M-1005.8,91.4c-0.1,0.3,1.1,0.9,0.1,0.8c-2.5-0.2-4.9,1-7.5,0.3c-1.8-0.2-3.5,0.4-4.8,1.6
		c-0.8,0.7-1.3,0.8-1.5-0.4c2.4-4.6,5.1-9,8.2-13.2c0.4-0.5,0.8-1.4,1.5-0.9c0.9,0.6-0.2,1.1-0.5,1.6c-0.4,0.8-0.8,1.6-1.1,2.5
		c-1.5,4.2-0.5,6,3.8,7.2C-1006.9,91.2-1006.3,91.3-1005.8,91.4z"/>
	<path id="Path_26" class="st1" d="M-1031.6,70.8c-0.8-0.6-1.5-0.7-2.2,0.3c-0.6,0.8-1.4,1.8-2.4,1.4c-1.1-0.4-1.3-1.7-1.3-2.8
		c0-2.5,0.1-5,0.2-7.6c0.3-2.3,0.1-4.7-0.5-7c-0.6-1.8,1.1-2.6,1.4-4.5c0.8,1.3,1.3,2.8,1.2,4.3c0.1,3.6,0,7.2,0.1,10.8
		c0,1-0.3,2.3,0.8,2.7c1,0.3,1.4-0.9,2.1-1.5c0.4-0.4,0.9-0.8,1.5-1.4c0.1,1.1,0.7,2.1,1.7,2.5C-1030.8,68-1031.7,68.9-1031.6,70.8z
		"/>
	<path id="Path_27" class="st1" d="M-1058.2,95.5c-1-0.8-0.6-1.8-0.4-2.7c1.1-4.2,3.6-7.8,7-10.4c1.6-1.2,2.3-3,3.8-4.4
		c-0.1,3.1-1.8,5.1-3.8,7c-1.6,1.4-2.8,3.2-3.3,5.2c-2.4,0.5-2.5,2.4-2.7,4.2l3.1-3.6l3.7-3.5c0.1,0.1,0.2,0.2,0.3,0.2
		c-0.4,1.9-1.4,3.5-2.9,4.7c-1.8,1.5-3.2,3.6-4,5.8C-1058.1,97.1-1058.8,96.5-1058.2,95.5l0.3-0.3l-0.2-0.1L-1058.2,95.5z"/>
	<path id="Path_28" class="st1" d="M-1043.9,75.4c0,0.4,0,1.1,0,1.9c0,0.4,0.1,0.8,0.6,0.9c2.4,0.4,2.6,0.6,2.2,3.3
		c4.5-0.7,9.2-0.1,13.5-2.1c-4.1,4.9-10.2,2.6-15.1,4.7c-0.5-0.9,0.3-1.5,0.4-2.2c-0.8-0.5-1.3,0.5-2,0.4
		C-1044.6,79.9-1045.6,77.4-1043.9,75.4z"/>
	<path id="Path_29" class="st1" d="M-1013.3,59.7c1.9-0.4,3.9-0.6,5.9-0.6c1.4,0.1,2.9-0.5,3.9-1.5h-6.2c1.6-4.1,5.4-0.6,7.4-3
		c0.2,2.3-1.4,3.4-1.3,5.2c0.1,1-0.5-0.2-0.9,0c-2.7,1.3-5.6,1.9-8.6,1.9c2.3,0.9,4.8,0.2,7.4,0.4c-2.8,1.7-5.8,1.1-8.5,1.6v0.1
		c-1.1-1.4,1-2.5,0.3-3.8v0.1C-1013.3,60.4-1013.1,60.3-1013.3,59.7L-1013.3,59.7z"/>
	<path id="Path_30" class="st1" d="M-769.9-103.5l-0.9,2.2c-1.3-0.7-1.3,0.2-1.4,1.1c-1.8,1.2-1.4,3.4-2.4,5c-1.5,2-3.2,3.9-5.1,5.5
		c-0.4,0.5-0.8,1.2-1.6,0.8c-0.5-0.2-1.3-0.8-1-1.3c0.4-0.7,0-1.7,1.2-2.2c2.3-0.8,4.5-1.9,5.2-4.6c0.1-0.3,0.7-0.4,0.2-1
		c-1.5-1.8,0.2-2.4,1.3-3.1c0.7-0.4,1.6-0.6,1.2-1.5c-0.9-2.4,1.1-3,2.5-4C-770.1-105.6-771.6-104.2-769.9-103.5z"/>
	<path id="Path_31" class="st1" d="M-786.7-102.7c2.1,0,2.5-2.2,3.9-3.2c1.1,1.4-0.4,2.7-0.1,4c-0.4,0.4-1.2,0.6-0.3,1.3
		c-0.2-0.1-0.3-0.2-0.5-0.3l-0.2,0.4l0.6-0.1l0.3-1.3c1.3,1.2,0.3,2.1-0.2,3.2c-0.4,0.9-1.7,1.3-1.3,2.5l0.1-0.1
		c-0.7-0.4-0.6,0.1-0.6,0.6l0.1-0.1c-0.6,0.2-1.1,0.4-0.5,1.1v-0.1c-0.7-0.4-0.6,0.1-0.6,0.6l0.1-0.1c-1,0.1-1.2,0.8-1.1,1.6
		l0.1-0.1c-1.6,0.8-1.5,2.6-2.3,3.8c-2-2.5,1.1-3.6,1.6-5.5c0.3-1.1,1.4-2.1,2.1-3.1c0.2-0.3,0.4-0.8,0-1.1
		c-0.4-0.3-1.1-0.2-1.1,0.1c-0.2,1.7-3,2.2-2.1,4.4c-1.2-1.3-0.8-2.6-0.4-4c0.4-1.2,1.7-1.9,1.7-3.3
		C-786.3-101.4-786.1-101.9-786.7-102.7z"/>
	<path id="Path_32" class="st1" d="M-791.3-85.5c0,0.3,0,0.7-0.1,1c-0.4,1.1-0.3,3.1-1.8,2.9c-1.5-0.3-3.3,1.3-4.5-0.5
		c-0.7-1.1-1-2.5-0.7-3.9c0.1-0.3,0.2-0.6,0.3-0.9c0.7-1.5,0.7-3.7,3.1-3.6C-792.9-90.5-791.3-88-791.3-85.5z M-797-87.2
		c0.6,1.9,1.5,2.8,3.4,2.3C-794-86.4-795.5-87.4-797-87.2L-797-87.2z"/>
	<path id="Path_33" class="st1" d="M-1019.4,46c0.7,0.9,1,2.2,0.6,3.3c-0.6,3.8,0.9,7.6,0.1,12.3c-1.5-2.7-3.7-3.3-5.5-4.4
		c-2-1-2.9-3.3-2.2-5.4c0.7,0.9,0.6,2.2,1.9,2.4v-0.1c0.9,1.6,2.6,1.8,4.3,2.9c-0.8-2.4-2.2-4.5-0.2-6.6c0.4-0.4-0.3-0.9-0.5-1.3
		l0,0c1-0.4,1.5-1.5,1.1-2.4c0-0.1,0-0.1-0.1-0.2v0.1C-1019.3,46.8-1019.4,46.3-1019.4,46L-1019.4,46z"/>
	<path id="Path_34" class="st0" d="M-807.2-73.3c1.1,2.5,3.5,2.7,5.7,3.3c1.2,0.3,3-0.1,3.2,1.9c-1.8-0.2-1.7,1-1.6,2.2l0,0
		c-1.6-1.8-3.6-1.8-5.7-1.3c-0.8,0.2-1.7,0.1-1.1-1.3c0.1-0.3-0.6-1.2-1.2-1.4c-0.7-0.2-1.3-0.7-1.6-1.4c0.6-1.9-1.5-3.7-0.1-5.6
		C-808.4-76-808.6-74.2-807.2-73.3z"/>
	<path id="Path_35" class="st1" d="M-1033.8,54.5c1.1,2.2,2.5,1.8,4.1,0.8c1.2-0.7,1.9-0.2,2.2,1.3c0.4,2.2-1,4.1-0.6,6.3
		c0.3,1.3-4.4,2.8-5.6,1.9c-0.8-0.6-0.3-0.9,0.3-1.5c1.4-1.1,2.6-2.3,3.7-3.7c0.9-1.3,0.3-1.8-0.7-1.6
		C-1033.2,58.6-1033.4,56.6-1033.8,54.5z"/>
	<path id="Path_36" class="st1" d="M-1053.3,67c0.2,1.5,2.5,2.7,0.7,4.8l-3.3-4.8c-0.5,2.3,1.1,3.6,2.4,5c2,1.7,2.9,4.4,2.3,7
		c-0.9-3.1-3.4-5-5.2-7.4c-2.1-2.8,0.1-4.8,0.9-7.2C-1054.3,65.1-1054.5,66.6-1053.3,67L-1053.3,67z"/>
	<path id="Path_37" class="st1" d="M-785.5-77.8c1,0.2,2.1,0.3,3.2,0.3c-0.4,0.7-0.6,1.3-0.9,1.9c-0.5,1-1.5,2.3-0.3,3.1
		c0.7,0.4,2.2-0.6,2.7-1.5c0.7-1.3,1.9-1.4,3-1.9c0.5-0.3,1.1-0.7,1.5-0.1c0.3,0.6,0.1,1.2-0.4,1.6c-1.9,1.6-3.8,3-5.9,4.3
		c-0.6,0.4-1.5,0.2-1.9-0.4c-0.2-0.3-0.2-0.6-0.2-0.9C-784.4-73.5-784-75.7-785.5-77.8z"/>
	<path id="Path_38" class="st1" d="M-1028.3,76.3c-1.4,1.4-2.3,3.6-4.5,1.3c-0.3-0.4-0.7-0.4-1.1,0c-1.1,1.5-2.8,1.5-4.4,1.7
		c0.6,0.1,1.3,0.3,1.6-0.3c0.4-0.7-0.4-0.8-0.7-1c-0.6-0.4-1.2-0.9-0.4-1.5c0.7-0.6,1-2.3,2.4-1.3c1.3,0.9,2.1,0.7,3.4-0.3
		C-1030.3,73.6-1029.8,76.2-1028.3,76.3z"/>
	<path id="Path_39" class="st0" d="M-769.9-103.5c-1.7-0.7-0.2-2.1-0.7-3.1c0.6-1.1,1.6-1.9,1.6-3.2c0-0.7,0.9-1.5,0-2
		c-1.1-0.7-1.1,0.8-1.8,1.2c-0.7-2.6,0-3.6,4.3-5.7c0.1,0.1,0.2,0.4,0.2,0.4c-2.4,2.2-0.8,5.4-1.9,8c-0.4,0.9,0,2.2-1,2.9
		c-0.4,0.2-0.4,0.5-0.2,0.9L-769.9-103.5z"/>
	<path id="Path_40" class="st0" d="M-964.3,8.2c-0.1-1.7,1.5-1.9,2.4-2.5c2.3-1.6,4.8-3,7.2-4.4c2.4-1.4,5-2.6,7.6-3.6
		C-953,0.9-958.7,4.4-964.3,8.2L-964.3,8.2z"/>
	<path id="Path_41" class="st0" d="M-1031.6,70.8c-0.2-1.9,0.8-2.8,2.6-2.7l0,0c0,0.9,0.5,0.7,1,0.5v-0.1c0.9,1.5,2.5,1,3.7,1.2
		c1.2,0.2,2.1,0.4,2,1.9c-3.1,0.4-6.1,1.5-9.1-0.3C-1031.1,71-1031,70.7-1031.6,70.8L-1031.6,70.8z"/>
	<path id="Path_42" class="st1" d="M-1044.2,56.2c1.7-0.7,2.3,1,3.2,1.7c0.7,0.6-0.6,1.1-1,1.6c-0.9,1.3-1.8,0.6-2.7-0.1
		c-0.5-0.4-1-0.8-1.4-0.1c-0.3,0.6,0.4,1.9-1.3,1.3c-1.1-0.4-2.6-0.9-2.8-2c-0.1-0.8,1-1.8,2.1-2.1c0.2,0,0.3,0,0.5,0
		C-1046.3,57.1-1045.2,57.9-1044.2,56.2z"/>
	<path id="Path_43" class="st1" d="M-1032.6,51.4c-0.2-1.5,1.3-2.1,2-3.3c-1.5-0.4-2.5-0.1-2.9,1.4c-0.2,0.8-0.9,0.6-1.5,0.5
		c-0.5-0.1-0.6-0.4-0.6-0.9c0-0.6,0.3-0.9,0.9-0.8c1.5,0.2,1-1.4,1.9-1.9c1.7-1.1,3.6-2,5.5-2.7c-1,3.3-1.9,6.4-5.1,7.9
		C-1032.4,51.6-1032.5,51.5-1032.6,51.4z"/>
	<path id="Path_44" class="st1" d="M-1060.9,93.3c1.6,4,1,5.3-5.3,10.7c-0.4-2,1.2-2.7,2.3-3.6c0.9-0.6,1.7-1.3,2.5-2.1
		c0.8-1.1,0.7-2.2-1-2.6c-0.5-0.1-1.4,0.7-1.4-0.5c0-1.1,0.7-1.4,1.6-1.5C-1061.8,93.5-1061.3,93.4-1060.9,93.3L-1060.9,93.3z"/>
	<path id="Path_45" class="st1" d="M-815.5-84.4l-0.7,1.4c-0.1-0.6-0.1-1.3-1.1-1.1c-1,0.3-2,0.4-3.1,0.6c4.3-3,9.4-4.8,13.7-8.7
		c-0.5,3.4-2.7,4.6-4.7,5.8c0-0.1-0.1-0.1-0.1-0.2c0,0-0.2-0.1-0.2,0c-0.8,0.8-1.4,2-2.9,1.1C-815.1-85.9-815.7-85.2-815.5-84.4z"/>
	<path id="Path_46" class="st1" d="M-1024.5,54.1c-0.3-3.4,1.6-6,3.2-8.7c1.4-2.4,2.7-4.8,4.1-7.4c0.2,2.3-0.9,4-1.6,5.7
		c-0.3,0.7-1.3,1.3-0.6,2.3v-0.1c-0.7-0.3-0.6,0.2-0.6,0.6v-0.1c-0.8,0.7-1.6,1.3-1,2.6l0,0c-1.9,0.5-1.9,2.3-2.4,3.7
		C-1023.6,53.3-1023.6,53.9-1024.5,54.1L-1024.5,54.1z"/>
	<path id="Path_47" class="st1" d="M-799.7-78.9c-0.9,1.8-1.7,2.9-3.2,3.4c1.1,0.9,1.9,0.2,2.8-0.6c0.3,1.3,0.1,2.3-1.3,2.4
		c-1.2,0.1-2.9,1.2-3.5-0.8c-0.2-0.7-1.1-0.6-1-1.2c0.1-1.3-2.2-2-1-3.2c0.9-0.8,1.5,0.9,2.4,1.2C-802.9-77.3-801.6-78.1-799.7-78.9
		z"/>
	<path id="Path_48" class="st1" d="M-997.7,29.7c-2,1.1-3.4,3-4.1,5.1c-1.6-2.3-0.8-3.6,6.9-10.8c0.4,0.9,0.2,1.8-0.4,2.6
		c-0.6,0.5-1.1,1.1-1.4,1.9C-997.1,28.9-997.7,29.2-997.7,29.7L-997.7,29.7z"/>
	<path id="Path_49" class="st1" d="M-817.8-81c0.4,2.5,1.4,4.8,3,6.8c1.8,2.5,1.5,4.8-0.1,7.3c-0.7-1.8-2.5-3.2-1-5.3
		c0.5-0.6-0.4-1.2-0.7-1.7C-817.6-76-818.8-77.9-817.8-81z"/>
	<path id="Path_50" class="st1" d="M-799.9-65.9c1.9-0.7,2.9,0.8,4.3,1.7c-1.5,1.3-2.8,3-4.8,0.9c-0.7-0.7-1.2-0.1-1.7,0.3
		c-1.2,1.3-2.1,0.3-3-0.4c-0.7-0.4-0.7-1,0-1.4c0.9-0.6,1.6-2.1,3.1-0.8C-801.3-65-800.3-64.3-799.9-65.9L-799.9-65.9z"/>
	<path id="Path_51" class="st1" d="M-1044.5,89c-0.8,0.9,1.6,1,0.5,2c-0.7,0.7-1.6-0.1-2.3-0.2c-0.9,0-0.3-1.2-0.4-1.8
		c-0.2-3.4-0.3-6.9-0.5-10.3c-0.3-1.2,0.4-2.3,1.5-2.7c0,3.7,0,7.4,0,11.1c0,0.7-0.6,1.8,0.9,1.8
		C-1044.6,88.9-1044.6,88.9-1044.5,89z"/>
	<path id="Path_52" class="st1" d="M-781.1-85.4c0.6-2.5,2.7-3.7,4.5-5.2c1.3-1.1,2.8-2.1,4.4-3.3c0.2,2.3-2,2.7-2.5,4.2l0,0
		c-2.4,0.5-3.2,2.9-4.9,4.3c-0.3,0.3-0.7,0.4-1.1,0.4C-780.9-85.3-781-85.4-781.1-85.4z"/>
	<path id="Path_53" class="st0" d="M-829.9,40.4c0.3,1.7,0,3.4-1,4.9c-0.7,1-1.6,1.8-1.6,3.2c0,0.4-0.3,0.8-0.8,0.8
		c-0.1,0-0.2,0-0.3-0.1c-0.5-0.2-1.4-0.2-1.2-1c0.2-1,0.1-2.6,1.1-2.9C-830.9,44.6-830.7,42.4-829.9,40.4z"/>
	<path id="Path_54" class="st1" d="M-781.7-97.5c0.5-3,0-6.2,2.3-8.7c2.9,2.7,3.3,4.3,1.5,6.4c-0.8-0.5-0.2-1.4-0.6-2
		c-0.4-0.5-0.7-1-1.2-1.7c-1,1.7-0.2,3.5-1,5L-781.7-97.5z"/>
	<path id="Path_55" class="st1" d="M-1004.5,30.3c-0.3,4.2,0.4,8.4-1.2,12.5c0-2.8,0.5-5.7-0.2-8.3
		C-1006.4,32.4-1005.5,31.5-1004.5,30.3z"/>
	<path id="Path_56" class="st1" d="M-802.9-79.4c-0.1-1.5-0.3-3-0.4-4.7c-1.2,0.7-2.3,1.6-3.2,2.7c0.2-3.2,2.6-4.9,4.9-6.8
		c-1.6,2.6,0,5.3-0.5,7.8C-802.7-80.4-802.6-79.7-802.9-79.4z"/>
	<path id="Path_57" class="st1" d="M-781.6-82c0.3,2.8,1.5,3.2,5.9,1.9c0,1.4-1,2.6-2.3,2.8c-1.2,0.5-2.6,0.1-3.3-1
		C-781.9-79.3-783.1-80.6-781.6-82L-781.6-82z"/>
	<path id="Path_58" class="st1" d="M-811.9-73.7c1.2,3.4,4.4,6.7-0.6,9.1c-0.9-1.1-0.8-2.7,0.3-3.7c0.2-0.1,0.3-0.3,0.5-0.4
		c0.9-0.7,0.5-1.2,0.2-1.9C-811.8-71.5-812.8-72.2-811.9-73.7z"/>
	<path id="Path_59" class="st1" d="M-809.6-77c-1.5,1.9,0.7,3.7,0.1,5.6c-1.1-1.3-1.7-2.9-1.6-4.6c0-1.2-0.7-1.7-1.5-1
		c-1.5,1.3-1.9,0-2.8-0.5c1.6-1.8,4.1-0.1,5.4-2.5L-809.6-77z"/>
	<path id="Path_60" class="st1" d="M-1057,76.1c2.5,0.6,4.1,3.2,3.5,5.7c-0.1,0.4-0.2,0.7-0.4,1.1c-1-2.4-2.7-4.6-4.8-6.2
		c0.3-0.1,0.4-0.5,0.3-0.7l0,0l0.4-0.3c0.1,0.5,0.1,1.2,0.4,1.3C-1057.1,77.1-1057.2,76.4-1057,76.1z"/>
	<path id="Path_61" class="st0" d="M-824.4,25.2c0.6-5.4,1.8-10.7,2.5-16.1C-821.4,14.7-823.2,20-824.4,25.2z"/>
	<path id="Path_62" class="st1" d="M-1038.7,72.6c1.5,1.4,0.3,2.8-0.6,3.9c-0.5,0.7-1.7,0.3-2.4-0.2c-1.6-1.1-0.9-2.5-0.2-4
		c0.3,1.2,0.6,2.3,1.7,2.3C-1038.7,74.6-1040.2,72.8-1038.7,72.6z"/>
	<path id="Path_63" class="st0" d="M-963.4,74.6c-0.9,0.1-1.3-0.5-1.1-1.2c0.4-1.4-0.4-2.4-0.9-3.5c3.3-0.6,3.4,2,4,4.1v-0.1
		C-962.1,74.2-962.6,74.7-963.4,74.6z"/>
	<path id="Path_64" class="st1" d="M-796.4-96.3c1,1.1,3.9,1.3,1.8,3.8c-0.7,0.8-1.2,1.3-2.2,0.4c-0.8-0.7-1.8-1.3-0.8-2.6
		C-797.1-95.1-796.4-95.5-796.4-96.3L-796.4-96.3z"/>
	<path id="Path_65" class="st0" d="M-1008.5,35.7c0.1,0.9,0,1.7,0.2,1.8c2.2,0.9,0.9,2.8,1.3,4.2c0.2,0.8-0.1,1.2-0.7,1.2
		c-0.6,0-0.8-0.5-0.4-1.1c0.4-0.6-0.1-0.8-0.4-0.9c-2.4-0.7-2.6-1.9-0.9-3.6C-1009,36.9-1008.7,36.3-1008.5,35.7z"/>
	<path id="Path_66" class="st0" d="M-947.6,131.7c-3.3,0.6-6.7,0.4-10-0.5C-954.2,131.2-950.9,130.7-947.6,131.7z"/>
	<path id="Path_67" class="st0" d="M-796.4-96.2c-1.4-0.5-2.3,0.3-3,1.4c-0.2,0.3-0.4,0.7-0.6,1c-0.3,0.8-1.1,1.4-2,1.3
		c-0.4,0-0.9-0.2-0.8-0.7c0.1-0.8,0.6-1.6,1.4-2c1.6-0.9,3.2-1.8,4.7-2.6C-796-97.3-797.2-96.6-796.4-96.2L-796.4-96.2z"/>
	<path id="Path_68" class="st1" d="M-1058.4,85.6c-0.7-0.7,0.8-2.4-1.2-2.5c0.1-1.2,1.2-1.6,1.9-2.5c0.2,2.6,1.2,5.2-0.6,7.6
		c-0.8-0.4-0.6-1.1-0.7-1.7L-1058.4,85.6z"/>
	<path id="Path_69" class="st0" d="M-1006.8,67l-2.6-1l0,0c1.5-0.5,1.8-2.7,3.7-2.7c0.5-0.1,1-0.2,1.4-0.3l0,0
		c0.4,1.4-2.3,2.5-0.5,4.1l0,0C-1005.8,65.9-1005.8,65.9-1006.8,67L-1006.8,67z"/>
	<path id="Path_70" class="st1" d="M-1021.2,42.4c-0.6,2-1.8,3.7-3.4,4.9c0-0.9,0.7-1.9-0.7-2c-0.6-0.1-0.6-0.9-0.5-1.5
		c0.2-0.7,0.6-0.8,1.3-0.5C-1023.4,43.7-1022.6,42.6-1021.2,42.4z"/>
	<path id="Path_71" class="st1" d="M-999.6,44.7c1.9,2.5-0.1,4.1-1.2,5.9c-0.2,0.4-0.6,0.6-1,0.4c-0.1,0-0.2-0.1-0.2-0.1
		c-0.5-0.2-0.6-0.8-0.4-1.3c0-0.1,0.1-0.2,0.2-0.2c0.3-0.3,0.2-1.1,1.1-0.8c1.2,0.3,1.4,0.1,0.9-1
		C-1000.8,46.5-1000.5,45.3-999.6,44.7z"/>
	<path id="Path_72" class="st1" d="M-778.8-82.2c1.6-0.5,2.4-2.3,4.2-2.6c-0.3,2.3-1.2,3.2-3.9,4.4
		C-779.3-80.9-778.1-81.7-778.8-82.2L-778.8-82.2z"/>
	<path id="Path_73" class="st0" d="M-879.6,52.5c0,1.3-0.9,2.3-1.2,3.5c-0.2,0.6-0.6,1.2-1.2,0.9c-1.1-0.4-0.2-0.9,0.1-1.3
		c0.4-0.7-0.1-1.3-0.2-1.9c0-1.1,0.1-2,1.4-2.2C-880.2,51.5-879.8,51.9-879.6,52.5z"/>
	<path id="Path_74" class="st0" d="M-791.9-97.5c-1.4,1.3-1.5,1.4-2,0.7c-0.4-0.6-1.8-0.8-1-1.9s1.9-0.4,2.9-0.3
		C-791.9-98.5-791.9-98-791.9-97.5z"/>
	<path id="Path_75" class="st1" d="M-791.9-97.5c0-0.5-0.1-1-0.1-1.5c0-0.3,0-0.7,0.1-1c0.2-0.8,0.6-1.5,1.5-1.2
		c1,0.3,0.6,1.7,0.4,1.9c-2,1.5-0.6,3.3-0.5,4.9c0.2,0.7,0.1,1.5-0.3,2.2L-791.9-97.5z"/>
	<path id="Path_76" class="st1" d="M-1060.8,93.3c0.3-1.5-0.8-2.7-0.8-4.1c0-0.9-0.2-2.1,0.9-2.7l0,0c0,1.1,0.3,2.2,0.9,3.1
		C-1058.7,91.3-1059.6,92.3-1060.8,93.3L-1060.8,93.3z"/>
	<path id="Path_77" class="st0" d="M-904.9-83.9c-2.4-0.5-4.7-1.6-6.6-3.2C-908.9-86.6-906.4-86.3-904.9-83.9z"/>
	<path id="Path_78" class="st0" d="M-1039.1,50.3c0,1.2-0.3,2.4-0.9,3.4c-0.6,1.2-1.4,0.6-2,0.3c-1-0.5-0.3-1.4,0.1-1.8
		C-1041.1,51.5-1040.2,50.9-1039.1,50.3z"/>
	<path id="Path_79" class="st0" d="M-1053.3,67.1c0.7-1.9-0.5-3.3-1.6-4.5c-0.7-0.6-0.9-1.7-0.2-2.5l0,0c0.9,1.2,1.7,2.4,2.4,3.7
		C-1052,64.7-1050.6,66.5-1053.3,67.1L-1053.3,67.1z"/>
	<path id="Path_80" class="st0" d="M-876.5-79.1c-0.5-1.2-0.6-1.9-1-2.6c-0.4-0.8,0.4-1.6,1.1-1.8c0.5-0.1,0.9,0.2,1,0.7
		c0,0.2,0,0.5-0.1,0.6c-0.5,1.1,0.4,1.1,1.1,1.2C-875-80.4-876-80.4-876.5-79.1z"/>
	<path id="Path_81" class="st0" d="M-915.8-90.5c-1-0.2-2.5,0-2.6-1.2c-0.1-1.3,1.4-1.7,2.4-1.8c1.1-0.2,1.8,0.9,1.9,1.9
		C-914-90.6-915-90.6-915.8-90.5z"/>
	<path id="Path_82" class="st1" d="M-789.1-85.6c-0.5-1.7,1.4-1,2.1-2.2c0.1,1.5,0.5,2.5-0.2,3.6c-0.4,0.6,0.3,0.6,0.6,0.8
		c-1.1,0.6-1.6,1.4-0.6,2.5c-0.4-0.3-0.9-0.5-1.4-0.1c0.6-0.8-0.7-1.9,0.4-2.6c-0.3-0.4-0.7-0.3-1-0.1c0-0.5,0-0.9,0-1.4
		c0.3,0.2,0.6,0.3,0.7-0.1C-788.5-85.3-788.7-85.6-789.1-85.6z"/>
	<path id="Path_83" class="st1" d="M-1044,73c-1.8,2.4-3.6,1.9-5.3,1.6c-1.1-0.1-1.9-1.1-1.8-2.3c0-0.1,0-0.2,0.1-0.3
		C-1049.1,73.8-1046.9,73.9-1044,73z"/>
	<path id="Path_84" class="st1" d="M-979.5,18.8l-0.1,0.1l0.1,0.1c-1.1-1.4-2.4-2.5-4.9-0.7c0.6-1,0.7-1.2,0.8-1.3
		c0.6-1.2,2.1-1.8,3.4-1.3C-978.3,16.3-980.3,17.9-979.5,18.8z"/>
	<path id="Path_85" class="st0" d="M-789.2-83.5c0.4-0.2,0.7-0.3,1,0.1c-1,0.7,0.2,1.8-0.4,2.6c-0.6,0.9-1.2,2.2-2.4,1.1
		c-1.2-1.1,0-1.8,0.9-2.3C-789.6-82.4-789.9-83.3-789.2-83.5z"/>
	<path id="Path_86" class="st0" d="M-1040.6,67.8c0.1-0.5,0.2-1,0.3-1.5c1.4-0.6-0.4-2.5,1.3-3c-0.3,2.4,1.5,4.9-0.4,7.5
		c0-0.9,0-1.6,0-2.3c0-1.3-0.5-0.7-1-0.3c-0.1,0-0.1-0.1-0.2-0.2C-1040.6,68-1040.6,67.9-1040.6,67.8z"/>
	<path id="Path_87" class="st0" d="M-855-43.8c2.3,1.8,4,4.1,5.1,6.7C-851.8-39.2-853.5-41.4-855-43.8L-855-43.8z"/>
	<path id="Path_88" class="st1" d="M-982.1,22.2c-1.5,0.3-2.1,1.8-3.3,2.4c-0.2-1.7-0.2-1.7,3.8-5.1c0,0.9,0,1.5,0,2.2v-0.1
		C-981.9,21.7-982.2,21.8-982.1,22.2L-982.1,22.2z"/>
	<path id="Path_89" class="st1" d="M-1042.8,90.2c-1.2-2.2,1.6-2.7,1.5-4.3c0.3,0,0.7-0.2,0.9,0c0.4,0.3,0.5,0.7,0.3,1.1
		C-1040.5,88.4-1041.5,89.6-1042.8,90.2z"/>
	<path id="Path_90" class="st0" d="M-1013.7,59.4c-0.4-1.5-2.2-2.8-0.9-4.6c0.2-0.2,0.6-0.3,0.9-0.4c0.8,1-0.4,2.6,1.1,3.3
		c1,1.1-1.2,1.1-0.8,2v-0.1C-1013.4,59.5-1013.5,59.4-1013.7,59.4z"/>
	<path id="Path_91" class="st0" d="M-825.7,30.6c-0.5,2.3-1.2,4.6-2.2,6.8C-828.6,36.2-827.4,32.1-825.7,30.6z"/>
	<path id="Path_92" class="st0" d="M-820.3-83.4c1-0.2,2.1-0.3,3.1-0.6c1-0.3,1,0.4,1.1,1.1c-0.9,0.6-2,1-3.1,1.3
		c-0.6,0-1.4,0.4-1.9-0.3C-821.7-82.8-819.9-82.6-820.3-83.4z"/>
	<path id="Path_93" class="st0" d="M-977.6,17.8c-0.5-1.3-0.7-2.8-2.5-3c0.8-1.8,2.7-0.7,3.7-1.9C-977.6,14.3-978,16.1-977.6,17.8
		L-977.6,17.8z"/>
	<path id="Path_94" class="st0" d="M-787.2-80.8c-1-1.1-0.5-1.9,0.6-2.5c2-1,0.9,1.3,1.8,1.7c0.6,0.3,0.3,1-0.1,1.3
		C-785.8-79.8-786.5-80.2-787.2-80.8z"/>
	<path id="Path_95" class="st0" d="M-1044.2,56.2c-0.9,1.7-2.1,0.9-3.2,0.3c0-1.6,1.4-1.6,2.4-1.7
		C-1044.3,54.7-1043.8,55.3-1044.2,56.2z"/>
	<path id="Path_96" class="st0" d="M-1011.3,37.2c-0.5,0.3-1,0.5-1.5,0.7c-0.7-1.2-1.5-0.9-2.5-0.3c-0.3,0.2-0.6-0.3-0.5-0.6
		c0.2-1,1.1-1.7,2.1-1.8C-1012.3,35.1-1012.4,36.7-1011.3,37.2z"/>
	<path id="Path_97" class="st0" d="M-802.9-79.4c0.3-0.3,0.1-0.9,0.7-1c1.2-1,2-2.5,2.2-4.1l0.9,2.4c-1.7,0.6-1.5,3.3-3.7,3.3
		c-0.1,0-0.2-0.1-0.2-0.1C-802.9-79.1-802.9-79.3-802.9-79.4z"/>
	<path id="Path_98" class="st0" d="M-988.4,22.8L-988.4,22.8c0.2-1.1-0.2-1.5-1.3-1l-0.1,0.1c1.1-0.3-0.2-2.3,1.6-2.2
		c0.1,0.1,0.1,0.2,0.2,0.3c0.9,1,3.3,1.5,0.8,3.3h0.1C-987.4,22.6-987.5,21.7-988.4,22.8z"/>
	<path id="Path_99" class="st0" d="M-774.9-108.3c-0.7-2.4,0.8-3.3,2.6-4.3C-771.3-109.7-774.5-110-774.9-108.3z"/>
	<path id="Path_100" class="st1" d="M-1009.4,66.1c-1.6-0.9-3.7-0.4-5.2-1.7l0,0c1.7-0.6,3.4,0.1,5-0.2
		C-1008.6,64.9-1010.1,65.5-1009.4,66.1L-1009.4,66.1z"/>
	<path id="Path_101" class="st0" d="M-772.2-100.2c0.1-0.8,0.1-1.8,1.4-1.1l0.1,0.2l0.3,0.9c0.3,1.3-0.5,2.5-1.8,2.8V-100.2z"/>
	<path id="Path_102" class="st0" d="M-815.5-84.4c-0.2-0.8,0.4-1.5,0.9-1.2c1.6,0.9,2.1-0.3,2.9-1.1h0.2c0,0.1,0.1,0.1,0.1,0.2
		c0,0.2,0,0.4,0,0.6c-0.5,1.4-2.6,0.9-3,2.4C-815.3-82.8-815.2-83.9-815.5-84.4z"/>
	<path id="Path_103" class="st0" d="M-996.7,28.5c0.3-0.8,0.7-1.4,1.4-1.9c2.1,0.1,1.3,1.4,1,2.4l-0.1,0.1h-0.2
		c-0.3-0.3-0.6-0.2-0.8,0.1c-0.1,0.2-0.1,0.4,0.1,0.6h0.1c-0.7-0.7-0.9,0.4-1.4,0.4l-0.3-0.5C-996.8,29.3-996.4,28.9-996.7,28.5z"/>
	<path id="Path_104" class="st0" d="M-893-80.4c-0.8,1.1-1.6,0.3-2.4,0.2c-1,0-1.8-0.7-1.5-1.5c0.4-1.2,1.3-0.2,2,0.1
		S-893.5-81.2-893-80.4z"/>
	<path id="Path_105" class="st0" d="M-939.2-87.3c0.2,2,2.3,1.2,3.3,2.1c-2.2-0.6-4.4-0.9-6.7-0.8C-941.3-86-940.4-87-939.2-87.3
		L-939.2-87.3z"/>
	<path id="Path_106" class="st1" d="M-814.2-83.4c0.4-1.6,2.5-1,3-2.4c1.2,0.8,0.7,1.5-0.1,2.2l-0.5,0.4
		C-812.6-83.1-813.5-81.8-814.2-83.4z"/>
	<path id="Path_107" class="st0" d="M-817.1,1.1c-1.3-1.6-0.9-3.3-1-4.9c0-0.4,0-0.9,0.6-0.9c0.6,0,0.6,0.5,0.6,0.9
		C-817-2.2-817.1-0.5-817.1,1.1z"/>
	<path id="Path_108" class="st0" d="M-1049.5,91.4c1,1,1.8-0.5,2.9-0.1c-0.3,1.4-1.6,2.5-3,2.5l0,0c0-0.4,0.2-0.9-0.3-1.2l-0.2-1.4
		l0,0L-1049.5,91.4z"/>
	<path id="Path_109" class="st0" d="M-997.9,41.5c0.7-0.4,1.5-0.2,1.9,0.5c0,0,0,0.1,0.1,0.1c0,0.1,0.1,0.3,0.2,0.4v-0.1
		c-0.6,0.2-0.7,0.6-0.5,1.1v-0.1c-0.7,0.1-0.6,0.6-0.5,1.1h0.1c-0.9,0.2-1.9,0.6-1.5-1C-998,42.8-998,42.1-997.9,41.5z"/>
	<path id="Path_110" class="st0" d="M-826.5-9l-1-6.2l0.6-0.1l0.7,6.2L-826.5-9z"/>
	<path id="Path_111" class="st0" d="M-1019,38.3c0.3,2.7-2.1,2-3.5,3.6C-1021.9,39.4-1020.2,39.2-1019,38.3z"/>
	<path id="Path_112" class="st1" d="M-1050.2,91.3c0.1,0.5,0.1,0.9,0.2,1.4c-0.3,0.3-0.9,0.6-0.2,1.1l-0.1-0.1
		c-1.3-0.3-1.2,1.6-2.5,1.5C-1053.2,93.2-1051.4,92.4-1050.2,91.3z"/>
	<path id="Path_113" class="st1" d="M-783.2-92.9c-0.8,0-1.5-1.1-2.4-0.1l-0.4-0.5l0.2-0.9l-0.1,0.1c0.4,0,0.5-0.2,0.6-0.6v0.1
		c0.4-0.3,0.7-0.6,0.5-1.1l-0.1,0.1c0.5,0.1,0.6-0.2,0.6-0.6l-0.1,0.1c0.5,0.3,1-1.8,1.4,0c-1.4,1.8-1.4,1.8,0.5,2.2
		c-0.1,0.3-0.1,0.6-0.1,0.9C-782.9-93.3-783.1-93.4-783.2-92.9z"/>
	<path id="Path_114" class="st0" d="M-876.4-62.8l-3.6-2.1c1.7-0.3,2.5,1.2,3.9,1.5L-876.4-62.8z"/>
	<path id="Path_115" class="st0" d="M-1002.2,38.4c-0.6-0.1-0.7,0.7-1.4,0.8v-4c0.7,1.2,2.1,1.3,1.8,2.7h0.1
		C-1002.1,37.9-1002.3,38-1002.2,38.4L-1002.2,38.4z"/>
	<path id="Path_116" class="st0" d="M-811.8-83.3l0.5-0.4c1.9,0.7,0.4,1.8,0.4,2.8C-812.6-81.2-812.1-82.3-811.8-83.3z"/>
	<path id="Path_117" class="st0" d="M-843.8-26.6l2,5l-0.4,0.2l-2.2-4.9L-843.8-26.6z"/>
	<path id="Path_118" class="st1" d="M-966.5,8.1c-0.9-0.1-1.3,1-2.4,0.9c0-1.2,1-2.1,2.1-2.1c0.4-0.1,0.9-0.3,1,0.3
		C-965.7,7.5-966.3,7.8-966.5,8.1L-966.5,8.1z"/>
	<path id="Path_119" class="st1" d="M-805.9-89.3c0-1.1-0.6-2.4,0.9-2.9c0.3-0.1,1.3,0.4,1.4,0.8C-803.5-90-805.3-90.2-805.9-89.3z"
		/>
	<path id="Path_120" class="st0" d="M-793.6-64.2l0.8,0.3c0.3,2.2-2,1.3-2.6,2.4C-795.4-62.7-794.7-63.8-793.6-64.2z"/>
	<path id="Path_121" class="st1" d="M-798.3-91.8c0.5,0,1,0.1,0.9,0.6c-0.1,0.8-0.7,1.5-1.4,1.7c-0.1-0.6-1.2,0.2-1.1-0.9
		C-799.8-91.4-798.9-91.4-798.3-91.8z"/>
	<path id="Path_122" class="st1" d="M-779.5-97c0.3,0.7,1.8-0.5,1.6,0.7c-0.3,1.3-1.7,1.2-2.7,1.5c-0.3-1,0.6-1.4,0.7-2.1
		C-779.7-96.7-779.6-96.8-779.5-97z"/>
	<path id="Path_123" class="st0" d="M-871.6-82.2c-1.3-0.2-2.5-0.9-3.4-1.9c-0.4-0.3-0.4-0.9-0.1-1.3c0.1-0.1,0.1-0.1,0.2-0.2
		c0.4-0.1,0.8,0.1,0.9,0.4c0,0.1,0,0.2,0,0.3C-874-83.1-871.9-83.4-871.6-82.2L-871.6-82.2z"/>
	<path id="Path_124" class="st0" d="M-1016.4,72.7c-1.9,0.9-3.9,1.5-5.9,0H-1016.4L-1016.4,72.7z"/>
	<path id="Path_125" class="st0" d="M-779.5-97c-0.1,0.2-0.3,0.3-0.5,0.1c-0.4-0.6-1.3,0-1.7-0.7c0.3-0.3,0.6-0.7,0.9-1
		c0.5-0.2,1-0.4,1.7-0.8L-779.5-97z"/>
	<path id="Path_126" class="st0" d="M-782.4-94c-1.9-0.4-1.9-0.4-0.5-2.2C-780.9-95.9-782-94.9-782.4-94z"/>
	<path id="Path_127" class="st1" d="M-1038.9,61.3c-0.2,0.7-0.4,1.4-1.3,1.3c-0.6,0-1-0.2-0.8-0.9c0.2-0.6,0.1-1.5,1-1.4
		C-1039.5,60.3-1038.8,60.4-1038.9,61.3z"/>
	<path id="Path_128" class="st1" d="M-774.8-89.7c0.4,0.6,1.3-0.5,1.6,0.4c0.2,0.5,0.3,0.5-1.2,2.3
		C-775.5-87.8-774.1-88.9-774.8-89.7L-774.8-89.7z"/>
	<path id="Path_129" class="st0" d="M-1036.2,86l-3.1,1.5C-1039.1,85.3-1039.1,85.2-1036.2,86z"/>
	<path id="Path_130" class="st0" d="M-1060.7,86.6L-1060.7,86.6c0.5-1.1,1.1-1.9,2.4-0.9l-0.5,0.9
		C-1059.5,86.6-1060.1,86.6-1060.7,86.6z"/>
	<path id="Path_131" class="st1" d="M-1026.8,75c2.5-0.5,5.1-0.5,7.6,0.2l-6.9,0.3C-1026.3,75.3-1026.6,75.1-1026.8,75z"/>
	<path id="Path_132" class="st1" d="M-791.3-68c-1.1,1.7-2.2,1.9-3.6,0.1c1.1-0.4,2.3,0.3,3.2-0.5L-791.3-68z"/>
	<path id="Path_133" class="st0" d="M-786.7-102.7c0.6,0.9,0.3,1.3-0.7,1.3c-1.6,0.3-1-1.1-0.8-1.5
		C-787.7-103.9-787.2-102.7-786.7-102.7z"/>
	<path id="Path_134" class="st0" d="M-1026.8,75c0.2,0.2,0.5,0.4,0.7,0.5c0,0.7-0.3,1.3-0.9,1.6c-0.4,0.2-0.6-0.2-0.7-0.5
		C-1028.2,75.6-1026.8,75.7-1026.8,75z"/>
	<path id="Path_135" class="st0" d="M-994.6,117l3,2.6c-0.1,0.1-0.2,0.2-0.3,0.3c-1.2-0.6-2.3-1.5-3.1-2.5L-994.6,117z"/>
	<path id="Path_136" class="st1" d="M-778.7-82.3c-0.7-0.1-1.1,1.4-1.8,0.5c-0.8-1.1,0.6-0.7,1-1.1c0.1-0.1,0.1-0.1,0.1-0.2
		c0-0.6-1.4-1.7,0.2-1.6C-777.7-84.5-779.2-83-778.7-82.3L-778.7-82.3z"/>
	<path id="Path_137" class="st0" d="M-1057,76.1c-0.2,0.3-0.1,1-0.6,0.8c-0.3-0.1-0.3-0.9-0.4-1.3c0.1-0.4,0.1-1.2,0.6-1.1
		C-1056.6,74.7-1057,75.6-1057,76.1z"/>
	<path id="Path_138" class="st0" d="M-973.1,131.9c-0.5,0.1-1.1,0.2-1.6,0.2c-0.2,0-0.4-0.2-0.8-0.3
		C-974.6,131-973.8,131.7-973.1,131.9z"/>
	<path id="Path_139" class="st0" d="M-1023.9,74h-2.7C-1024.9,73-1024.9,73-1023.9,74z"/>
	<path id="Path_140" class="st0" d="M-876.6-85.2c-1.1-0.1-2.1-0.7-2.7-1.7C-877.5-87.3-877.4-85.9-876.6-85.2L-876.6-85.2z"/>
	<path id="Path_141" class="st0" d="M-962.1-84.8c-1.1,0.2-2.2,0.5-3-0.7C-964.2-86.7-964.2-86.7-962.1-84.8z"/>
	<path id="Path_142" class="st0" d="M-812.7-21.7c0.7,0.9,0.8,2.1,0.3,3.1C-813.3-19.4-812.9-20.2-812.7-21.7z"/>
	<path id="Path_143" class="st0" d="M-919.5-87.8c-1.1-0.2-2.2-0.7-3.1-1.4C-921-89.3-919.8-89.6-919.5-87.8L-919.5-87.8z"/>
	<path id="Path_144" class="st1" d="M-952.7,81.4c-0.4,0.7-0.6,1.6-1.8,1.2c-0.1-1.1,0.9-1.4,1.6-1.9L-952.7,81.4z"/>
	<path id="Path_145" class="st0" d="M-870.6-81.7c0.8,0,1.5,0.6,1.7,1.3C-870-80.2-870.4-80.8-870.6-81.7L-870.6-81.7z"/>
	<path id="Path_146" class="st0" d="M-995,117.4c-0.9-0.6-1.7-1.4-2.2-2.3l0.4-0.4c1,0.4,1.8,1.2,2.3,2.2L-995,117.4z"/>
	<path id="Path_147" class="st0" d="M-1009.1,32.2c0.3,1.1-0.6,1.4-1,2c-0.1-0.2-0.2-0.4-0.3-0.6
		C-1010.9,32.2-1009.3,32.8-1009.1,32.2z"/>
	<path id="Path_148" class="st0" d="M-997.3,115.1l-2.1-2c1.6-0.1,2,0.8,2.5,1.6L-997.3,115.1z"/>
	<path id="Path_149" class="st0" d="M-919.6-87.7c0.7,0.1,1.2,0.6,1.3,1.3c-0.1,0.2-0.3,0.3-0.6,0.3
		C-919.8-86.4-919.6-87.1-919.6-87.7L-919.6-87.7z"/>
	<path id="Path_150" class="st0" d="M-1058.4,75.9c0.1,0.3,0,0.6-0.2,0.7l0,0c-1.1-0.6-0.7-1.3-0.1-1.9l0,0L-1058.4,75.9z"/>
	<path id="Path_151" class="st0" d="M-783.2-92.9c0-0.5,0.3-0.5,0.6-0.2c0.2,0.4,0.3,0.9-0.1,1.1C-783.1-91.8-783.3-92.4-783.2-92.9
		z"/>
	<path id="Path_152" class="st0" d="M-855.9-45.4c0.4,0.5,1,0.8,1,1.6l0,0C-855.7-44.1-856.2-44.5-855.9-45.4L-855.9-45.4z"/>
	<path id="Path_153" class="st1" d="M-787-91.9l0.2-0.9l-0.1,0.1l0.9-0.7l0.4,0.5l-1,1.5L-787-91.9z"/>
	<path id="Path_154" class="st1" d="M-1043.5,87.4c-0.1,0.6-0.5,1.2-1,1.6c-0.1-0.1-0.1-0.1-0.2-0.2c-0.2-0.8-0.1-1.4,0.8-1.7
		C-1043.8,87.2-1043.6,87.3-1043.5,87.4z"/>
	<path id="Path_155" class="st0" d="M-861-50.4c-0.6-0.3-1.1-0.8-1.4-1.4C-861.5-51.7-860.7-51.5-861-50.4L-861-50.4z"/>
	<path id="Path_156" class="st0" d="M-831.4,39c0.1,0.1,0.3,0.2,0.3,0.3c0.1,0.3-0.1,0.4-0.4,0.3c-0.1,0-0.2-0.3-0.2-0.4
		C-831.7,39.1-831.5,39-831.4,39z"/>
	<path id="Path_157" class="st0" d="M-966.5,8.1c0.7,0.7,1.5-0.1,2.2,0.1l0,0C-965.1,8.8-965.8,7.9-966.5,8.1L-966.5,8.1z"/>
	<path id="Path_158" class="st1" d="M-1043.9,87.1c0.2-0.6,0.6-1,1.1-1.3c0.1,0.6-0.2,1.3-0.8,1.6L-1043.9,87.1z"/>
	<path id="Path_159" class="st0" d="M-858-47.4c-0.4-0.2-0.9-0.4-1-1c0.1-0.1,0.2-0.1,0.2-0.2C-858.3-48.3-858-47.8-858-47.4
		L-858-47.4z"/>
	<path id="Path_160" class="st0" d="M-996.5,30.2c-1.1,1.6-1,0.1-1.2-0.5l0,0c0.4,0.5,0.6-0.1,0.9-0.1L-996.5,30.2z"/>
	<path id="Path_161" class="st1" d="M-1032.3,51.7c-0.2,0.5-0.4,0.9-1,0.7c-0.2-0.1-0.3-0.4-0.2-0.6c0.2-0.5,0.6-0.4,1-0.3
		C-1032.5,51.5-1032.4,51.6-1032.3,51.7z"/>
	<path id="Path_162" class="st0" d="M-857-46.4c-0.9,0.2-0.8-0.5-1-1l0,0C-857.5-47.4-857-47-857-46.4L-857-46.4L-857-46.4z"/>
	<path id="Path_163" class="st0" d="M-789.1-85.6c0.4,0,0.6,0.2,0.5,0.5c-0.1,0.4-0.4,0.3-0.7,0.1
		C-789.5-85.2-789.7-85.5-789.1-85.6z"/>
	<path id="Path_164" class="st0" d="M-859.6-48.8c-0.5-0.2-0.8-0.6-0.9-1.1l0,0c0.9-0.5,1,0.3,1.4,0.7L-859.6-48.8z"/>
	<path id="Path_165" class="st1" d="M-781.6-82c-0.4-0.5-0.4-1.2,0.1-1.6c0,0,0,0,0.1-0.1L-781.6-82L-781.6-82z"/>
	<path id="Path_166" class="st0" d="M-855.9-45.4c-0.9,0.3-1.1-0.2-1-0.9l0,0C-856.4-46.3-856.2-45.9-855.9-45.4L-855.9-45.4z"/>
	<path id="Path_167" class="st1" d="M-918.6,107.3c-0.3,1.1-0.8,0.9-1.4,0.2C-919.5,107.4-919.1,107-918.6,107.3z"/>
	<path id="Path_168" class="st0" d="M-976.5,131.4c0,0.1,0.1,0.3,0.1,0.4c-0.1,0.1-0.2,0.2-0.4,0.2c0-0.1-0.1-0.3-0.1-0.4
		C-976.8,131.5-976.6,131.4-976.5,131.4z"/>
	<path id="Path_169" class="st1" d="M-786.6-91.5c-0.2,0.3-0.3,0.9-0.8,0.5c-0.3-0.3,0-0.7,0.4-0.9L-786.6-91.5z"/>
	<path id="Path_170" class="st0" d="M-870.5-81.7c-0.4,0.1-0.9-0.1-1.1-0.4l0,0C-871.3-82.2-870.8-82-870.5-81.7L-870.5-81.7z"/>
	<path id="Path_171" class="st0" d="M-881.1,76.1c-0.3,0.3-0.8,0.4-1.2,0.1L-881.1,76.1z"/>
	<path id="Path_172" class="st1" d="M-1027.9,68.6c-0.5,0.2-1,0.4-1-0.5C-1028.6,68.1-1028.1,68-1027.9,68.6z"/>
	<path id="Path_173" class="st1" d="M-1050.7,87.3l0.3-0.8c0.3,0.3,0.3,0.8,0,1l0,0C-1050.6,87.4-1050.6,87.4-1050.7,87.3z"/>
	<path id="Path_174" class="st0" d="M-1006.7,67.1c0,0.1-0.1,0.1-0.1,0.2l0.1,0.1V67.1L-1006.7,67.1z"/>
	<path id="Path_175" class="st0" d="M-993.9,108.8c-0.1,0.1-0.1,0.2-0.2,0.2c-0.1-0.1-0.3-0.1-0.4-0.2c0.1-0.1,0.1-0.2,0.2-0.2
		C-994.2,108.7-994,108.7-993.9,108.8z"/>
	<path id="Path_176" class="st0" d="M-993.1,109.7C-993.1,109.8-993.1,109.8-993.1,109.7c-0.1,0.1-0.1,0.1-0.2,0.1
		c-0.2-0.1-0.2-0.2,0-0.3C-993.2,109.6-993.1,109.7-993.1,109.7z"/>
	<path id="Path_177" class="st1" d="M-791.7-68.4l0.7-0.5c0.2,0.4,0.2,0.7-0.3,0.9L-791.7-68.4z"/>
	<path id="Path_178" class="st0" d="M-1016.4,72.7c0.1-0.4,0.4-0.4,0.7-0.4c0,0,0.1,0.1,0.1,0.2L-1016.4,72.7L-1016.4,72.7z"/>
	<path id="Path_179" class="st1" d="M-1049.5,91.4l-0.7-0.1c-0.1-0.3,0-0.6,0.3-0.8L-1049.5,91.4z"/>
	<path id="Path_180" class="st1" d="M-780.8-85.2c-0.1,0.4,0.2,1.2-0.5,0.9c-0.5-0.2,0-0.8,0.2-1.2C-781-85.4-780.9-85.3-780.8-85.2
		z"/>
	<path id="Path_181" class="st0" d="M-988.2,19.7c0.2-0.4,0.7-0.6,0.9-0.2c0.3,0.6-0.4,0.4-0.7,0.5
		C-988.1,19.8-988.1,19.7-988.2,19.7z"/>
	<path id="Path_182" class="st1" d="M-1031.6,70.7c0.5,0,0.4,0.3,0.2,0.6L-1031.6,70.7z"/>
	<path id="Path_183" class="st0" d="M-1058.7,74.7l0.1-0.4C-1058.2,74.7-1058.6,74.6-1058.7,74.7L-1058.7,74.7z"/>
	<path id="Path_184" class="st1" d="M-769.4-104.3c-0.2-0.4-0.2-0.7,0.2-0.9L-769.4-104.3z"/>
	<path id="Path_185" class="st1" d="M-770.4-100.2l-0.3-0.9C-770-101.1-770.3-100.6-770.4-100.2z"/>
	<path id="Path_186" class="st0" d="M-876.7-85.2l0.4,0.1C-876.6-84.8-876.6-85-876.7-85.2L-876.7-85.2z"/>
	<path id="Path_187" class="st0" d="M-859-48.4c-0.3,0-0.5-0.2-0.5-0.4l0,0l0.4-0.3c0.1,0.2,0.2,0.4,0.3,0.6
		C-858.9-48.5-858.9-48.4-859-48.4z"/>
	<path id="Path_188" class="st1" d="M-1051.6,79.5c0.1-0.3,0.3-0.6,0.6-0.4c0.4,0.3,0.1,0.5-0.2,0.7L-1051.6,79.5z"/>
	<path id="Path_189" class="st0" d="M-1049.7,93.9c-0.3,0.6-0.4-0.4-0.7-0.1l0.1,0.1H-1049.7L-1049.7,93.9z"/>
	<path id="Path_190" class="st1" d="M-1051.1,79.8c-0.1,0.2-0.4,0.5-0.4,0.5c-0.4-0.2-0.2-0.5,0-0.8L-1051.1,79.8z"/>
	<path id="Path_191" class="st0" d="M-860.5-49.9c-0.3,0-0.5-0.2-0.5-0.5l0,0l0,0C-860.5-50.6-860.4-50.4-860.5-49.9L-860.5-49.9z"
		/>
	<path id="Path_192" class="st0" d="M-958.5-83.1l0.6,0.1L-958.5-83.1z"/>
	<path id="Path_193" class="st1" d="M-881.6,98l0.5-0.6L-881.6,98z"/>
	<path id="Path_194" class="st1" d="M-1001.5,35.4c0.1,0.1,0.1,0.2,0.1,0.3l-0.1,0.1C-1001.6,35.7-1001.6,35.6-1001.5,35.4
		C-1001.7,35.5-1001.6,35.4-1001.5,35.4z"/>
	<path id="Path_195" class="st1" d="M-1014.2,63.8l-0.3,0.6l0,0C-1014.2,64.4-1015,63.5-1014.2,63.8L-1014.2,63.8z"/>
	<path id="Path_196" class="st0" d="M-986.6,121.6l0.1-0.4C-986.1,121.6-986.5,121.6-986.6,121.6L-986.6,121.6z"/>
	<path id="Path_197" class="st0" d="M-1043.1,123.1L-1043.1,123.1L-1043.1,123.1L-1043.1,123.1z"/>
	<path id="Path_198" class="st1" d="M-777.4-84.4L-777.4-84.4c-0.1,0-0.2,0-0.2-0.1s0.1-0.1,0.1-0.1L-777.4-84.4z"/>
	<path id="Path_199" class="st1" d="M-1007.1,33.8c0.1,0.1,0.1,0.2,0.1,0.3c0,0-0.1,0.1-0.1,0.2c-0.1-0.1-0.1-0.2-0.1-0.3
		C-1007.2,34-1007.1,33.9-1007.1,33.8z"/>
	<path id="Path_200" class="st1" d="M-865,91.4c-0.1,0.7-0.3,1.2-1.2,1.3c-0.1-0.6,0.4-1.2,1-1.3C-865.1,91.3-865.1,91.3-865,91.4
		L-865,91.4z"/>
	<path id="Path_201" class="st1" d="M-867,93.5l0.3,0.3l-0.5,0.3c0-0.1-0.2-0.3-0.1-0.4C-867.4,93.7-867.2,93.6-867,93.5z"/>
	<path id="Path_202" class="st1" d="M-868.6,95.9l0.1-0.7C-868,95.5-868.5,95.7-868.6,95.9L-868.6,95.9z"/>
	<path id="Path_203" class="st1" d="M-868.6,95.9l-0.1,0.2L-868.6,95.9L-868.6,95.9z"/>
	<path id="Path_204" class="st0" d="M-940.7,92.2h-7C-945.4,91.5-943,91.5-940.7,92.2z"/>
	<path id="Path_205" class="st1" d="M-997.6,91.5c-1.2,1.4-3.9,0-3.6,2.8c-1-0.1-0.8-0.9-1.2-1.3c-1.4-1.3-0.3-1.4,0.7-1.5
		C-1000.4,91.4-999.1,91.5-997.6,91.5z"/>
	<path id="Path_206" class="st0" d="M-887.8,91.3c0.1-0.4,0.2-0.6,0.6-0.4L-887.8,91.3z"/>
	<path id="Path_207" class="st0" d="M-1011.5,51.7c0.1,0.7-0.7,0.7-0.8,1.2c-0.8,0.9-1.5,0.8-2-0.3c-0.1-0.1-0.2-0.2-0.2-0.3
		c0-0.7,0.1-1.4,1-1.2c1.6,0.4,0.9-0.8,1.2-1.4l0.1-0.2l0.2,0.1c0.5,0.3,1.1,0.3,1.3,0.9v-0.1C-1011.6,50.5-1011.8,51-1011.5,51.7z"
		/>
	<path id="Path_208" class="st0" d="M-1012.2,46.8c0-0.2,0-0.6,0.1-0.7c1.1-0.7,0.8,0.5,0.7,0.7c-0.2,0.5,1.8,1.4-0.2,1.6
		C-1013.3,48.5-1011.6,47.2-1012.2,46.8z"/>
	<path id="Path_209" class="st0" d="M-1013.1,46.6l0.1,1.6c-1.6,0.3-0.7-0.9-0.8-1.4C-1013.9,46.1-1013.4,46.1-1013.1,46.6z"/>
	<path id="Path_210" class="st0" d="M-1009.6,48.5c0.5,1,0,2.1,0,3.1c-0.1-1-0.3-2.1-0.4-3.1C-1009.8,48.3-1009.7,48.3-1009.6,48.5z
		"/>
	<path id="Path_211" class="st0" d="M-1014.8,53.2c0.1,0.4-0.1,0.8-0.5,0.9c-0.1-0.1-0.2-0.2-0.2-0.3c-0.2-0.3,0-0.8,0.4-0.9h0.1
		C-1014.9,53-1014.8,53.1-1014.8,53.2z"/>
	<path id="Path_212" class="st0" d="M-1014.2,52.6l-0.5,0.6c-0.1-0.1-0.2-0.2-0.3-0.3c0.1-0.3,0.2-0.6,0.6-0.6
		C-1014.4,52.4-1014.3,52.5-1014.2,52.6z"/>
	<path id="Path_213" class="st0" d="M-1015.3,54.1c-0.2,0.1-0.3,0.2-0.5,0.4c-0.3-0.4-0.1-0.5,0.3-0.6
		C-1015.4,54-1015.4,54-1015.3,54.1z"/>
	<path id="Path_214" class="st0" d="M-999.2,39.4c-0.4-0.1-0.8-0.3-0.4-0.8c0.5-0.5,0.1-1.4,1-1.7c0.3-0.2,1,0.1,0.9-0.6l0,0
		c0.1,0.1,0.2,0.1,0.3,0.2c0.2,0.7,0.6,1.5-0.6,1.8c-0.4,0-0.7,0.1-0.7,0.6h0.1C-999.1,38.8-999.2,39.1-999.2,39.4L-999.2,39.4z"/>
	<path id="Path_215" class="st1" d="M-1011.5,51.7c-0.3-0.7-0.1-1.2,0.7-1.2C-1010.8,51-1010.6,51.7-1011.5,51.7z"/>
</g>
<g>
	<path class="st2" d="M130.5,190C93.9,153.5,57.5,117.2,21.1,80.9c5.4-5.4,10.9-10.8,16.3-16.3c30.7,30.7,61.5,61.5,92.4,92.5
		c37.9-37.9,75.5-75.5,113.2-113.2c4,3.6,6.3,7.8,7.2,12.7c1.3,8-1.1,14.8-6.7,20.5c-28.6,28.6-57.1,57.1-85.7,85.7
		c-8.7,8.7-17.4,17.5-26.2,26.2C131.2,189.4,130.8,189.8,130.5,190z"/>
	<path class="st0" d="M21.5,41.7c3.1-3.4,7.2-5.7,12-6.5c8.1-1.4,15,0.9,20.8,6.7c18.3,18.3,36.6,36.6,54.9,55
		c0.5,0.5,0.8,1.1,1.3,1.8c1.1-1.3,2-2.2,2.8-3.2c-6.3-6.3-12.7-12.7-19.1-19.2c0.5-0.6,0.8-0.9,1.1-1.2
		c9.6-9.5,19.1-19.1,28.7-28.6c7.3-7.2,19.4-7.7,27.3-1c2.9,2.5,5.6,5.3,8.3,8c4.5,4.4,8.9,8.9,13.4,13.3c0.9,0.9,0.9,1.5,0,2.4
		c-7.8,7.7-15.6,15.4-23.4,23.2c-5.7,5.6-11.2,11.4-16.9,17c-6.9,6.9-13.9,13.9-20.8,20.8c-0.4,0.4-0.8,0.7-1,1
		C81.1,101.3,51.4,71.6,21.5,41.7z M127.6,76.1c0.8,0.8,1.7,1.8,2.7,2.9c2.9-2.9,5.6-5.7,8.3-8.5c2.7-2.7,2.7-2.7-0.3-5.2
		c0,0-0.1,0,0,0C134.8,69,131.2,72.5,127.6,76.1z"/>
	<path class="st0" d="M130.2,150.6c-5.4-5.4-10.8-10.8-16.4-16.4c0.3-0.3,0.7-0.8,1.1-1.2c21.2-21.2,42.5-42.5,63.7-63.7
		c1-1,0.9-1.6-0.1-2.5c-5.7-5.6-11.4-11.3-17.1-17c-0.4-0.4-0.8-0.9-1.2-1.3c0.2-0.3,0.3-0.5,0.4-0.6c9.6-9.6,19.1-19.3,28.9-28.6
		c8.5-8,22.8-7.1,30.5,1.5c0.1,0.1,0.2,0.3,0.3,0.5c-9,9-18,18-27.1,27c-0.1,0.3-0.2,0.6-0.3,0.9c0.7,0.4,1.6,0.7,2.1,1.3
		c0.9,1,1.4,1,2.4,0c7.1-7.1,14.2-14.2,21.3-21.3c1.6-1.6,3.2-3.2,4.6-4.6c5.6,5.6,11.1,11.1,16.5,16.5
		C203.4,77.4,166.7,114,130.2,150.6z"/>
	<path class="st2" d="M17.7,45.1c5.5,5.5,11,11,16.3,16.3c-5.3,5.4-10.8,10.8-16.2,16.2C8.3,69.7,8.4,52.9,17.7,45.1z"/>
	<path class="st2" d="M107.6,56.4c-5.5,5.4-10.9,10.8-16.4,16.3c-0.1-0.1-0.5-0.3-0.7-0.6c-4.8-4.8-9.6-9.7-14.5-14.5
		c-0.7-0.7-1-1.2-0.1-2c8.4-8,22.8-8,31.1,0C107.3,55.9,107.5,56.2,107.6,56.4z"/>
</g>
</svg>
