<?xml version="1.0" encoding="utf-8"?>
<!-- Generator: Adobe Illustrator 25.1.0, SVG Export Plug-In . SVG Version: 6.00 Build 0)  -->
<svg version="1.1" id="Layer_1" xmlns="http://www.w3.org/2000/svg" xmlns:xlink="http://www.w3.org/1999/xlink" x="0px" y="0px"
	 viewBox="0 0 150 150" style="enable-background:new 0 0 150 150;" xml:space="preserve">
<style type="text/css">
	.st0{fill-rule:evenodd;clip-rule:evenodd;fill:#4265AD;}
	.st1{fill-rule:evenodd;clip-rule:evenodd;fill:#2DA83E;}
	.st2{fill-rule:evenodd;clip-rule:evenodd;fill:#EFBC16;}
	.st3{fill-rule:evenodd;clip-rule:evenodd;fill:#D93026;}
</style>
<g id="Ebene_x0020_1">
	<g id="_564627256">
		<g>
			<path id="_431195944" class="st0" d="M75,0c20.7,0,39.5,8.4,53,22l-17.7,17.7c-9-9-21.5-14.6-35.4-14.6s-26.3,5.6-35.4,14.6
				L22,22C35.5,8.4,54.3,0,75,0z"/>
			<path id="_568778248" class="st1" d="M110.4,110.4c6.3-6.3,11-14.4,13.2-23.3H96.4V60.7h26.5h25.7c0.9,4.6,1.4,9.4,1.4,14.3
				c0,0.6,0,1.3,0,1.9l0,0l0,0c0,0.6,0,1.2-0.1,1.9l0,0.1c0,0.6-0.1,1.2-0.1,1.8l0,0.2c0,0.6-0.1,1.1-0.1,1.7l0,0.3
				c-0.1,0.5-0.1,1-0.2,1.5l-0.1,0.4c-0.1,0.5-0.1,0.9-0.2,1.4c0,0.2-0.1,0.4-0.1,0.6l0,0.3h0c-2.6,15.9-10.1,30.1-21,41
				L110.4,110.4L110.4,110.4z"/>
			<path id="_425781896" class="st2" d="M39.6,110.4c9,9,21.5,14.6,35.4,14.6c13.8,0,26.3-5.6,35.4-14.6L128,128
				c-13.6,13.6-32.3,22-53,22c-20.7,0-39.5-8.4-53-22L39.6,110.4L39.6,110.4z"/>
			<path id="_425793800" class="st3" d="M39.6,39.6C30.6,48.7,25,61.2,25,75c0,13.8,5.6,26.3,14.6,35.4L22,128
				C8.4,114.5,0,95.7,0,75s8.4-39.5,22-53L39.6,39.6L39.6,39.6z"/>
		</g>
	</g>
</g>
</svg>
