<svg xmlns="http://www.w3.org/2000/svg" width="74.708" height="74.667" viewBox="0 0 74.708 74.667">
  <g id="Group_7" data-name="Group 7" transform="translate(1850.202 1427.364)">
    <path id="Path_233" data-name="Path 233" d="M-1850.2-1387.831v-4.376c.045-.257.1-.513.133-.772.177-1.347.282-2.708.535-4.041a36.463,36.463,0,0,1,10.122-19.238,36.423,36.423,0,0,1,20.119-10.531c1.407-.243,2.831-.386,4.248-.575h4.376c.212.042.423.093.637.126,2.037.316,4.108.486,6.105.964a37.373,37.373,0,0,1,27.762,43.232,36.29,36.29,0,0,1-11.385,20.448,36.488,36.488,0,0,1-30.449,9.545,35.661,35.661,0,0,1-19.448-8.886,36.557,36.557,0,0,1-12.18-21.659C-1849.873-1385-1850.013-1386.418-1850.2-1387.831Zm28.487,1.458a15.788,15.788,0,0,1-3.073-23.226,15.683,15.683,0,0,1,22.047-1.8,15.167,15.167,0,0,1,5.484,10.359c.559,6.11-1.832,10.951-6.722,14.657a26.009,26.009,0,0,1,16.031,17.827,32.75,32.75,0,0,0-2.774-45.842,32.755,32.755,0,0,0-48.342,4.454c-11.2,14.6-6.914,32.714,1.322,41.318A25.93,25.93,0,0,1-1821.715-1386.373Zm9.454,29.324c.783-.065,2.192-.133,3.589-.305a32.015,32.015,0,0,0,15.189-6.044c1.921-1.4,1.891-1.444,1.321-3.785a21.243,21.243,0,0,0-24.281-16.03,21.3,21.3,0,0,0-17.461,18.055.917.917,0,0,0,.3.7A33.293,33.293,0,0,0-1812.261-1357.049Zm-.63-31.012a11.37,11.37,0,0,0,11.382-11.26,11.391,11.391,0,0,0-11.242-11.409,11.389,11.389,0,0,0-11.454,11.269A11.366,11.366,0,0,0-1812.891-1388.061Z" fill="#939393"/>
  </g>
</svg>
