<svg xmlns="http://www.w3.org/2000/svg" width="57" height="57" viewBox="0 0 57 57">
  <g id="Group_286" data-name="Group 286" transform="translate(-38 -243)">
    <g id="Icon_feather-share-2" data-name="Icon feather-share-2" transform="translate(45.5 256)">
      <path id="Path_235" data-name="Path 235" d="M31.5,7.5A4.5,4.5,0,1,1,27,3,4.5,4.5,0,0,1,31.5,7.5Z" fill="none" stroke="#fff" stroke-linecap="round" stroke-linejoin="round" stroke-width="3"/>
      <path id="Path_236" data-name="Path 236" d="M13.5,18A4.5,4.5,0,1,1,9,13.5,4.5,4.5,0,0,1,13.5,18Z" fill="none" stroke="#fff" stroke-linecap="round" stroke-linejoin="round" stroke-width="3"/>
      <path id="Path_237" data-name="Path 237" d="M31.5,28.5A4.5,4.5,0,1,1,27,24,4.5,4.5,0,0,1,31.5,28.5Z" fill="none" stroke="#fff" stroke-linecap="round" stroke-linejoin="round" stroke-width="3"/>
      <path id="Path_238" data-name="Path 238" d="M12.885,20.265l10.245,5.97" fill="none" stroke="#fff" stroke-linecap="round" stroke-linejoin="round" stroke-width="3"/>
      <path id="Path_239" data-name="Path 239" d="M23.115,9.765l-10.23,5.97" fill="none" stroke="#fff" stroke-linecap="round" stroke-linejoin="round" stroke-width="3"/>
    </g>
    <g id="Ellipse_10" data-name="Ellipse 10" transform="translate(38 243)" fill="none" stroke="#fff" stroke-width="1">
      <circle cx="28.5" cy="28.5" r="28.5" stroke="none"/>
      <circle cx="28.5" cy="28.5" r="28" fill="none"/>
    </g>
  </g>
</svg>
