<?xml version="1.0" encoding="utf-8"?>
<!-- Generator: Adobe Illustrator 25.1.0, SVG Export Plug-In . SVG Version: 6.00 Build 0)  -->
<svg version="1.1" id="Layer_1" xmlns="http://www.w3.org/2000/svg" xmlns:xlink="http://www.w3.org/1999/xlink" x="0px" y="0px"
	 viewBox="0 0 62 235.7" style="enable-background:new 0 0 62 235.7;" xml:space="preserve">
<style type="text/css">
	.st0{fill:#C8C8C8;}
</style>
<g id="Mask_Group_2" transform="translate(-450 -686)">
	<path id="Path_2" class="st0" d="M452.8,693.7c0.1,0.3,0.4,0.4,0.6,0.3c0.3-0.1,0.4-0.4,0.3-0.6l0,0L452.8,693.7z M457,702.4
		c-0.1-0.3-0.4-0.4-0.6-0.3c-0.3,0.1-0.4,0.4-0.3,0.6l0,0L457,702.4z M458.9,711.9c0.1,0.3,0.3,0.4,0.6,0.4c0.3-0.1,0.4-0.3,0.4-0.6
		l0,0L458.9,711.9z M462.4,720.9c-0.1-0.3-0.3-0.4-0.6-0.4s-0.4,0.3-0.4,0.6L462.4,720.9z M463.5,730.5c0.1,0.3,0.3,0.4,0.6,0.4
		c0.3-0.1,0.4-0.3,0.4-0.6l0,0L463.5,730.5z M466.2,739.8c0-0.3-0.3-0.5-0.6-0.4s-0.5,0.3-0.4,0.6l0,0L466.2,739.8z M466.6,749.5
		c0,0.3,0.3,0.5,0.6,0.4c0.3,0,0.5-0.3,0.4-0.6L466.6,749.5z M468.8,758.9c0-0.3-0.3-0.5-0.6-0.4c-0.3,0-0.5,0.3-0.4,0.5
		L468.8,758.9z M468.7,768.6c0,0.3,0.3,0.5,0.5,0.5c0.3,0,0.5-0.3,0.5-0.5H468.7z M470.3,778.1c0-0.3-0.3-0.5-0.5-0.5
		s-0.5,0.3-0.5,0.5H470.3z M469.7,787.7c0,0.3,0.2,0.5,0.5,0.5s0.5-0.2,0.5-0.5H469.7z M470.9,797.3c0-0.3-0.2-0.5-0.5-0.5
		s-0.5,0.2-0.5,0.5H470.9z M469.9,807c0,0.3,0.2,0.5,0.5,0.5s0.5-0.2,0.5-0.5H469.9z M470.6,816.6c0-0.3-0.2-0.5-0.5-0.5
		s-0.5,0.2-0.5,0.5H470.6z M469.2,826.2c0,0.3,0.2,0.5,0.5,0.5s0.5-0.2,0.5-0.5H469.2z M469.6,835.8c0-0.3-0.2-0.5-0.5-0.5
		s-0.5,0.2-0.5,0.5H469.6z M467.8,845.3c0,0.3,0.2,0.5,0.5,0.5s0.5-0.2,0.5-0.4L467.8,845.3z M467.8,855c0-0.3-0.2-0.5-0.4-0.6
		s-0.5,0.2-0.6,0.4l0,0L467.8,855z M465.5,864.4c0,0.3,0.2,0.5,0.4,0.6c0.3,0,0.5-0.2,0.6-0.4L465.5,864.4z M465.1,874.1
		c0-0.3-0.1-0.5-0.4-0.6c-0.3,0-0.5,0.1-0.6,0.4L465.1,874.1z M462.5,883.4c-0.1,0.3,0.1,0.5,0.4,0.6s0.5-0.1,0.6-0.4L462.5,883.4z
		 M461.5,893c0-0.3-0.1-0.5-0.4-0.6c-0.3,0-0.5,0.1-0.6,0.4L461.5,893z M458.4,902.1c-0.1,0.3,0.1,0.5,0.4,0.6s0.5-0.1,0.6-0.4
		L458.4,902.1z M456.8,911.7c0.1-0.3-0.1-0.5-0.3-0.6c-0.3-0.1-0.5,0.1-0.6,0.3L456.8,911.7z M451,689.3c0.6,1.5,1.2,2.9,1.8,4.4
		l0.9-0.4c-0.6-1.5-1.2-3-1.8-4.4L451,689.3z M456.1,702.7c1,3,2,6,2.9,9.1l1-0.3c-0.9-3.1-1.8-6.2-2.9-9.2L456.1,702.7z
		 M461.4,721.2c0.7,3.1,1.4,6.2,2.1,9.4l1-0.2c-0.6-3.2-1.3-6.3-2.1-9.4L461.4,721.2z M465.2,740c0.5,3.1,1,6.3,1.4,9.5l1-0.1
		c-0.4-3.2-0.9-6.4-1.4-9.5L465.2,740z M467.8,759c0.3,3.2,0.6,6.4,0.9,9.6l1-0.1c-0.3-3.2-0.5-6.4-0.9-9.6L467.8,759z M469.3,778.2
		c0.2,3.2,0.3,6.4,0.4,9.6h1c-0.1-3.2-0.2-6.4-0.4-9.6H469.3z M469.9,797.4c0,3.2,0,6.4,0,9.6h1c0-3.2,0.1-6.4,0-9.6H469.9z
		 M469.6,816.6c-0.1,3.2-0.3,6.4-0.4,9.6l1,0.1c0.2-3.2,0.3-6.4,0.4-9.6L469.6,816.6z M468.6,835.7c-0.2,3.2-0.5,6.4-0.8,9.6l1,0.1
		c0.3-3.2,0.6-6.4,0.8-9.6L468.6,835.7z M466.8,854.9c-0.4,3.2-0.8,6.4-1.2,9.5l1,0.1c0.4-3.1,0.8-6.3,1.2-9.6H466.8z M464.1,873.9
		c-0.5,3.2-1.1,6.4-1.7,9.5l1,0.2c0.6-3.1,1.1-6.2,1.7-9.5L464.1,873.9z M460.6,892.8c-0.7,3.2-1.4,6.4-2.2,9.4l1,0.2
		c0.8-3,1.5-6.1,2.2-9.4L460.6,892.8z M455.9,911.4c-0.5,1.6-0.9,3.1-1.4,4.6l1,0.3c0.5-1.5,0.9-3,1.4-4.6L455.9,911.4z"/>
</g>
</svg>
