<?xml version="1.0" encoding="utf-8"?>
<!-- Generator: Adobe Illustrator 25.1.0, SVG Export Plug-In . SVG Version: 6.00 Build 0)  -->
<svg version="1.1" id="Layer_1" xmlns="http://www.w3.org/2000/svg" xmlns:xlink="http://www.w3.org/1999/xlink" x="0px" y="0px"
	 viewBox="0 0 255.1 56.7" style="enable-background:new 0 0 255.1 56.7;" xml:space="preserve">
<style type="text/css">
	.st0{fill:#C8C8C8;}
</style>
<g id="Mask_Group_2" transform="translate(-450 -686)">
	<path id="Path_2" class="st0" d="M468.7,722.5c0.3-0.1,0.4-0.4,0.3-0.6c-0.1-0.3-0.4-0.4-0.6-0.3c0,0,0,0,0,0L468.7,722.5z
		 M477.4,718.2c-0.3,0.1-0.4,0.4-0.3,0.6c0.1,0.3,0.4,0.4,0.6,0.3c0,0,0,0,0,0L477.4,718.2z M486.9,716.3c0.3-0.1,0.4-0.3,0.4-0.6
		c-0.1-0.3-0.3-0.4-0.6-0.4c0,0,0,0,0,0L486.9,716.3z M495.9,712.9c-0.3,0.1-0.4,0.3-0.4,0.6c0.1,0.3,0.3,0.4,0.6,0.4L495.9,712.9z
		 M505.5,711.8c0.3-0.1,0.4-0.3,0.4-0.6c-0.1-0.3-0.3-0.4-0.6-0.4l0,0L505.5,711.8z M514.8,709.1c-0.3,0-0.5,0.3-0.4,0.6
		c0,0.3,0.3,0.5,0.6,0.4c0,0,0,0,0,0L514.8,709.1z M524.4,708.6c0.3,0,0.5-0.3,0.4-0.6c0-0.3-0.3-0.5-0.6-0.4L524.4,708.6z
		 M533.9,706.5c-0.3,0-0.5,0.3-0.4,0.6c0,0.3,0.3,0.5,0.5,0.4L533.9,706.5z M543.5,706.6c0.3,0,0.5-0.3,0.5-0.5
		c0-0.3-0.3-0.5-0.5-0.5L543.5,706.6z M553.1,705c-0.3,0-0.5,0.3-0.5,0.5c0,0.3,0.3,0.5,0.5,0.5L553.1,705z M562.7,705.6
		c0.3,0,0.5-0.2,0.5-0.5c0-0.3-0.2-0.5-0.5-0.5L562.7,705.6z M572.3,704.4c-0.3,0-0.5,0.2-0.5,0.5c0,0.3,0.2,0.5,0.5,0.5
		L572.3,704.4z M581.9,705.4c0.3,0,0.5-0.2,0.5-0.5s-0.2-0.5-0.5-0.5L581.9,705.4z M591.6,704.6c-0.3,0-0.5,0.2-0.5,0.5
		c0,0.3,0.2,0.5,0.5,0.5L591.6,704.6z M601.1,706.1c0.3,0,0.5-0.2,0.5-0.5s-0.2-0.5-0.5-0.5L601.1,706.1z M610.8,705.7
		c-0.3,0-0.5,0.2-0.5,0.5c0,0.3,0.2,0.5,0.5,0.5L610.8,705.7z M620.3,707.5c0.3,0,0.5-0.2,0.5-0.4c0-0.3-0.2-0.5-0.5-0.6
		L620.3,707.5z M630,707.5c-0.3,0-0.5,0.2-0.6,0.4c0,0.3,0.2,0.5,0.4,0.6c0,0,0,0,0,0L630,707.5z M639.4,709.7
		c0.3,0,0.5-0.2,0.6-0.4c0-0.3-0.2-0.5-0.4-0.6L639.4,709.7z M649,710.2c-0.3,0-0.5,0.1-0.6,0.4c0,0.3,0.1,0.5,0.4,0.6L649,710.2z
		 M658.3,712.8c0.3,0.1,0.5-0.1,0.6-0.4c0.1-0.3-0.1-0.5-0.4-0.6L658.3,712.8z M668,713.7c-0.3,0-0.5,0.1-0.6,0.4
		c0,0.3,0.1,0.5,0.4,0.6L668,713.7z M677.1,716.9c0.3,0.1,0.5-0.1,0.6-0.4c0.1-0.3-0.1-0.5-0.4-0.6L677.1,716.9z M686.6,718.5
		c-0.3-0.1-0.5,0.1-0.6,0.3c-0.1,0.3,0.1,0.5,0.3,0.6L686.6,718.5z M464.3,724.3c1.5-0.6,2.9-1.2,4.4-1.8l-0.4-0.9
		c-1.5,0.6-3,1.2-4.4,1.8L464.3,724.3z M477.7,719.2c3-1,6-2,9.1-2.9l-0.3-1c-3.1,0.9-6.2,1.8-9.2,2.9L477.7,719.2z M496.1,713.9
		c3.1-0.7,6.2-1.4,9.4-2.1l-0.2-1c-3.2,0.6-6.3,1.3-9.4,2.1L496.1,713.9z M515,710.1c3.1-0.5,6.3-1,9.5-1.4l-0.1-1
		c-3.2,0.4-6.4,0.9-9.5,1.4L515,710.1z M534,707.5c3.2-0.3,6.4-0.6,9.6-0.9l-0.1-1c-3.2,0.3-6.4,0.5-9.6,0.9L534,707.5z M553.1,706
		c3.2-0.2,6.4-0.3,9.6-0.4l0-1c-3.2,0.1-6.4,0.2-9.6,0.4L553.1,706z M572.3,705.4c3.2,0,6.4,0,9.6,0l0-1c-3.2,0-6.4-0.1-9.6,0
		L572.3,705.4z M591.5,705.6c3.2,0.1,6.4,0.3,9.6,0.4l0.1-1c-3.2-0.2-6.4-0.3-9.6-0.4L591.5,705.6z M610.7,706.7
		c3.2,0.2,6.4,0.5,9.6,0.8l0.1-1c-3.2-0.3-6.4-0.6-9.6-0.8L610.7,706.7z M629.8,708.5c3.2,0.4,6.4,0.8,9.5,1.2l0.1-1
		c-3.1-0.4-6.3-0.8-9.6-1.2L629.8,708.5z M648.9,711.2c3.2,0.5,6.4,1.1,9.5,1.7l0.2-1c-3.1-0.6-6.2-1.1-9.5-1.7L648.9,711.2z
		 M667.8,714.7c3.2,0.7,6.4,1.4,9.4,2.2l0.2-1c-3-0.8-6.1-1.5-9.4-2.2L667.8,714.7z M686.4,719.4c1.6,0.5,3.1,0.9,4.6,1.4l0.3-1
		c-1.5-0.5-3-0.9-4.6-1.4L686.4,719.4z"/>
</g>
</svg>
