<?xml version="1.0" encoding="utf-8"?>
<!-- Generator: Adobe Illustrator 25.1.0, SVG Export Plug-In . SVG Version: 6.00 Build 0)  -->
<svg version="1.1" id="Layer_1" xmlns="http://www.w3.org/2000/svg" xmlns:xlink="http://www.w3.org/1999/xlink" x="0px" y="0px"
	 viewBox="0 0 255.1 56.7" style="enable-background:new 0 0 255.1 56.7;" xml:space="preserve">
<style type="text/css">
	.st0{fill:#C8C8C8;}
</style>
<g id="Mask_Group_3">
	<path id="Path_3" class="st0" d="M17.2,19.3c0.3,0.1,0.4,0.4,0.3,0.6c-0.1,0.3-0.4,0.4-0.6,0.3c0,0,0,0,0,0L17.2,19.3z M25.9,23.6
		c-0.3-0.1-0.4-0.4-0.3-0.6c0.1-0.3,0.4-0.4,0.6-0.3c0,0,0,0,0,0L25.9,23.6z M35.4,25.5c0.3,0.1,0.4,0.3,0.4,0.6s-0.3,0.4-0.6,0.4
		c0,0,0,0,0,0L35.4,25.5z M44.4,28.9c-0.3-0.1-0.4-0.3-0.4-0.6c0.1-0.3,0.3-0.4,0.6-0.4l0,0L44.4,28.9z M54,30
		c0.3,0.1,0.4,0.3,0.4,0.6c-0.1,0.3-0.3,0.4-0.6,0.4L54,30z M63.3,32.7c-0.3,0-0.5-0.3-0.4-0.6s0.3-0.5,0.6-0.4c0,0,0,0,0,0
		L63.3,32.7z M72.9,33.2c0.3,0,0.5,0.3,0.4,0.6c0,0.3-0.3,0.5-0.6,0.4L72.9,33.2z M82.4,35.3c-0.3,0-0.5-0.3-0.4-0.6
		c0-0.3,0.3-0.5,0.5-0.4L82.4,35.3z M92,35.2c0.3,0,0.5,0.3,0.5,0.5c0,0.3-0.3,0.5-0.5,0.5L92,35.2z M101.6,36.9
		c-0.3,0-0.5-0.3-0.5-0.5s0.3-0.5,0.5-0.5L101.6,36.9z M111.2,36.3c0.3,0,0.5,0.2,0.5,0.5s-0.2,0.5-0.5,0.5L111.2,36.3z M120.8,37.4
		c-0.3,0-0.5-0.2-0.5-0.5c0-0.3,0.2-0.5,0.5-0.5L120.8,37.4z M130.4,36.4c0.3,0,0.5,0.2,0.5,0.5s-0.2,0.5-0.5,0.5L130.4,36.4z
		 M140.1,37.2c-0.3,0-0.5-0.2-0.5-0.5s0.2-0.5,0.5-0.5L140.1,37.2z M149.6,35.8c0.3,0,0.5,0.2,0.5,0.5s-0.2,0.5-0.5,0.5L149.6,35.8z
		 M159.3,36.1c-0.3,0-0.5-0.2-0.5-0.5c0-0.3,0.2-0.5,0.5-0.5L159.3,36.1z M168.8,34.3c0.3,0,0.5,0.2,0.6,0.4s-0.2,0.5-0.4,0.6
		L168.8,34.3z M178.5,34.3c-0.3,0-0.5-0.2-0.6-0.4c0-0.3,0.2-0.5,0.4-0.6c0,0,0,0,0,0L178.5,34.3z M187.9,32.1
		c0.3,0,0.5,0.2,0.6,0.4s-0.2,0.5-0.4,0.6l0,0L187.9,32.1z M197.5,31.6c-0.3,0-0.5-0.1-0.6-0.4c0-0.3,0.1-0.5,0.4-0.6L197.5,31.6z
		 M206.8,29c0.3-0.1,0.5,0.1,0.6,0.4s-0.1,0.5-0.4,0.6l0,0L206.8,29z M216.5,28.1c-0.3,0-0.5-0.1-0.6-0.4c0-0.3,0.1-0.5,0.4-0.6
		L216.5,28.1z M225.6,24.9c0.3-0.1,0.5,0.1,0.6,0.4c0.1,0.3-0.1,0.5-0.4,0.6l0,0L225.6,24.9z M235.1,23.4c-0.3,0.1-0.5-0.1-0.6-0.3
		c-0.1-0.3,0.1-0.5,0.3-0.6L235.1,23.4z M12.8,17.5c1.5,0.6,2.9,1.2,4.4,1.8l-0.4,0.9c-1.5-0.6-3-1.2-4.4-1.8L12.8,17.5z M26.2,22.6
		c3,1,6,2,9.1,2.9l-0.3,1c-3.1-0.9-6.2-1.8-9.2-2.9L26.2,22.6z M44.6,27.9c3.1,0.7,6.2,1.4,9.4,2.1l-0.2,1c-3.2-0.6-6.3-1.3-9.4-2.1
		L44.6,27.9z M63.5,31.8c3.1,0.5,6.3,1,9.5,1.4l-0.1,1c-3.2-0.4-6.4-0.9-9.5-1.4L63.5,31.8z M82.5,34.3c3.2,0.3,6.4,0.6,9.6,0.9
		l-0.1,1c-3.2-0.3-6.4-0.5-9.6-0.9L82.5,34.3z M101.6,35.9c3.2,0.2,6.4,0.3,9.6,0.4l0,1c-3.2-0.1-6.4-0.2-9.6-0.4L101.6,35.9z
		 M120.8,36.4c3.2,0,6.4,0,9.6,0l0,1c-3.2,0-6.4,0.1-9.6,0L120.8,36.4z M140,36.2c3.2-0.1,6.4-0.3,9.6-0.4l0.1,1
		c-3.2,0.2-6.4,0.3-9.6,0.4L140,36.2z M159.2,35.1c3.2-0.2,6.4-0.5,9.6-0.8l0.1,1c-3.2,0.3-6.4,0.6-9.6,0.8L159.2,35.1z M178.3,33.3
		c3.2-0.4,6.4-0.8,9.5-1.2l0.1,1c-3.1,0.4-6.3,0.8-9.6,1.2L178.3,33.3z M197.4,30.6c3.2-0.5,6.4-1.1,9.5-1.7l0.2,1
		c-3.1,0.6-6.2,1.1-9.5,1.7L197.4,30.6z M216.3,27.1c3.2-0.7,6.4-1.4,9.4-2.2l0.2,1c-3,0.8-6.1,1.5-9.4,2.2L216.3,27.1z M234.9,22.4
		c1.6-0.5,3.1-0.9,4.6-1.4l0.3,1c-1.5,0.5-3,0.9-4.6,1.4L234.9,22.4z"/>
</g>
</svg>
