<svg xmlns="http://www.w3.org/2000/svg" width="39" height="40.343" viewBox="0 0 39 40.343">
  <g id="Group_4" data-name="Group 4" transform="translate(-192.75 -51.794)">
    <path id="Path_229" data-name="Path 229" d="M199.009,51.794c1.059.544,2.128,1.071,3.174,1.639a1.928,1.928,0,0,1,.989,1.729c.006.114.047.283.127.328a13.4,13.4,0,0,0,4.685,1.966c1.326.177,2.656.325,3.985.483a11.232,11.232,0,0,1,3.606.912A6.159,6.159,0,0,1,218.3,61.44c.9,1.585,1.794,3.175,2.7,4.757.247.432.522.848.79,1.267a6,6,0,0,1,.356,6.278c-.051.1-.1.2-.185.361H230.7c.776,0,1.044.263,1.044,1.037q0,7.15,0,14.3a2.492,2.492,0,0,1-2.7,2.7h-23.6a2.5,2.5,0,0,1-2.7-2.7q-.005-7.131,0-14.261c0-.805.262-1.068,1.055-1.069h7.831c-.231-.633-.45-1.254-.688-1.868-.033-.084-.145-.147-.232-.2-2.35-1.409-4.585-3.008-7.062-4.208a6.827,6.827,0,0,1-2.811-2.686,4.866,4.866,0,0,0-1.759-1.757,6.5,6.5,0,0,1-.43.526,1.918,1.918,0,0,1-2.22.369c-.926-.464-1.845-.945-2.741-1.464a1.94,1.94,0,0,1-.679-2.651c.926-1.765,1.866-3.523,2.8-5.284.264-.5.556-.984.788-1.5a2.692,2.692,0,0,1,1.624-1.591Zm31.163,28.558H216.029a3.379,3.379,0,0,1-.51-.024.771.771,0,0,1-.02-1.52,2.847,2.847,0,0,1,.51-.03q6.815,0,13.631,0h.5V75.7H204.352v3.071h.457q1.753,0,3.506,0a2.187,2.187,0,0,1,.469.038.773.773,0,0,1-.033,1.506,2.638,2.638,0,0,1-.471.029c-1.169,0-2.337,0-3.506,0-.139,0-.279.012-.454.021V80.8q0,4.294,0,8.588c0,.87.313,1.174,1.195,1.174h23.44c.93,0,1.215-.287,1.215-1.228q0-4.255,0-8.509ZM199.8,61.963a6.569,6.569,0,0,1,2.35,2.305,6.1,6.1,0,0,0,2.715,2.427,21.1,21.1,0,0,1,1.968,1.068c1.6.976,3.185,1.981,4.779,2.969a6.6,6.6,0,0,0,.66.348c.225.106.417.027.448-.21a3.915,3.915,0,0,0,.035-1.085,3.768,3.768,0,0,0-1.077-2.1c-.909-.928-1.816-1.859-2.7-2.81a1.479,1.479,0,0,1,.676-2.629,5.444,5.444,0,0,1,3.029-.124,4.2,4.2,0,0,1,2.57,2.179.971.971,0,0,0,1.115.6A12.643,12.643,0,0,1,218.5,65c-.512-.9-1.045-1.832-1.571-2.768a4.457,4.457,0,0,0-3.032-2.317c-1.382-.287-2.791-.468-4.2-.62a14.2,14.2,0,0,1-5.984-1.758c-.388-.234-.8-.436-1.217-.665Zm12.932,10.78c.259.378.489.71.714,1.044a.745.745,0,0,0,.7.323q2.7-.022,5.4,0a.784.784,0,0,0,.67-.307,4.466,4.466,0,0,0-3.921-7.339,4.213,4.213,0,0,0-2.534,1.211,18.131,18.131,0,0,1,.574,1.975A2.479,2.479,0,0,1,212.73,72.743ZM194.283,61.2a2.116,2.116,0,0,0,.389.367c.732.407,1.476.8,2.216,1.188.457.242.6.2.841-.256q1.863-3.5,3.722-7.011c.23-.435.185-.568-.262-.808q-1.091-.585-2.185-1.164c-.439-.232-.581-.19-.813.245q-1.865,3.5-3.725,7.01C194.407,60.882,194.365,61.006,194.283,61.2Zm15.829,2.6,2.564,2.663,1.434-1C213.111,63.648,211.734,63.065,210.112,63.794Z" transform="translate(0)" fill="#fff"/>
    <path id="Path_230" data-name="Path 230" d="M354.821,350.676h-7.208c-.829,0-1.084-.255-1.084-1.08q0-1.753,0-3.506c0-.741.258-1.008.983-1.008q7.326,0,14.653,0c.727,0,.986.266.987,1q0,1.792,0,3.584c0,.718-.283,1-1,1Q358.485,350.679,354.821,350.676Zm-6.683-4v2.394h13.418V346.68Z" transform="translate(-137.591 -262.415)" fill="#fff"/>
    <path id="Path_231" data-name="Path 231" d="M370.866,309a.762.762,0,0,1-.787.758.777.777,0,0,1-.777-.776.785.785,0,0,1,.814-.781A.772.772,0,0,1,370.866,309Z" transform="translate(-157.968 -229.412)" fill="#fff"/>
  </g>
</svg>
