<svg xmlns="http://www.w3.org/2000/svg" width="46.28" height="26.742" viewBox="0 0 46.28 26.742">
  <g id="Group_2" data-name="Group 2" transform="translate(-608.146 64.977)">
    <path id="Path_226" data-name="Path 226" d="M656.17-41.79,667.621-51.6l-11.457-9.822-.168.049c0,.643.011,1.286,0,1.928a1.028,1.028,0,0,1-.853,1.128.98.98,0,0,1-1.181-.878,11.376,11.376,0,0,1,.031-2.2,4.055,4.055,0,0,1,4.173-3.568q9.493-.012,18.985,0,6.253,0,12.506,0a4.11,4.11,0,0,1,4.4,4.389q.007,8.99,0,17.981a4.1,4.1,0,0,1-4.37,4.369q-15.67,0-31.34,0a4.13,4.13,0,0,1-4.406-4.392c0-.368,0-.737,0-1.1.009-.722.4-1.168,1.024-1.171s1.017.433,1.032,1.164c.013.63,0,1.261,0,1.891Zm1.483-21.1c.2.189.31.293.422.389q7.516,6.432,15.033,12.862a1.152,1.152,0,0,0,1.81-.019q7.516-6.432,15.03-12.866c.11-.094.212-.2.393-.366Zm-.009,22.55H690.36l-11.574-9.926c-.973.845-1.9,1.67-2.845,2.462a2.953,2.953,0,0,1-3.631.2,5.007,5.007,0,0,1-.429-.348c-.883-.763-1.764-1.528-2.667-2.311Zm34.3-21.18L680.38-51.6l11.565,9.912Z" transform="translate(-39.631)" fill="#fff"/>
    <path id="Path_227" data-name="Path 227" d="M613.762,48.126c-1.489,0-2.978.008-4.466,0a1.035,1.035,0,0,1-1.126-1.252,1.061,1.061,0,0,1,1.164-.818c1.288-.01,2.576,0,3.864,0,1.673,0,3.346,0,5.018,0,.7,0,1.139.337,1.214.881a1.042,1.042,0,0,1-1.151,1.19C616.773,48.133,615.267,48.126,613.762,48.126Z" transform="translate(0 -96.122)" fill="#fff"/>
    <path id="Path_228" data-name="Path 228" d="M635.141,7.748c.97,0,1.941,0,2.911,0,.757,0,1.217.4,1.216,1.036s-.457,1.033-1.218,1.037q-2.886.012-5.773,0c-.751,0-1.227-.421-1.227-1.039s.484-1.029,1.23-1.033C633.233,7.743,634.187,7.748,635.141,7.748Z" transform="translate(-19.83 -62.962)" fill="#fff"/>
  </g>
</svg>
