<svg xmlns="http://www.w3.org/2000/svg" width="38.131" height="38.131" viewBox="0 0 38.131 38.131">
  <g id="Group_285" data-name="Group 285" transform="translate(-135.262 408.769)">
    <path id="Path_219" data-name="Path 219" d="M135.263-392.421q0-5.745,0-11.491a4.557,4.557,0,0,1,4.835-4.857q11.576,0,23.152,0a4.517,4.517,0,0,1,4.573,3.51,5.815,5.815,0,0,1,.126,1.307q.012,7.746,0,15.491a.557.557,0,0,0,.366.606,9.075,9.075,0,0,1,5,9.456,9.085,9.085,0,0,1-7.362,7.614,9.042,9.042,0,0,1-9.794-4.992c-.137-.286-.308-.3-.559-.3q-7.831,0-15.661,0a4.521,4.521,0,0,1-4.538-3.5,5.609,5.609,0,0,1-.126-1.264Q135.255-386.633,135.263-392.421Zm20.623,9.086h-.468c-.667,0-1.334.017-2-.011a.876.876,0,0,1-.888-.9.9.9,0,0,1,.874-.915,3.375,3.375,0,0,1,.34-.007c.979,0,1.958-.008,2.936.005a.7.7,0,0,0,.61-.284,8.921,8.921,0,0,1,7.146-3.331c.558,0,1.117.076,1.695.118.006-.1.015-.185.015-.268q0-7.6,0-15.191a2.733,2.733,0,0,0-2.93-2.843q-11.6,0-23.191,0A2.752,2.752,0,0,0,137.073-404q0,11.574,0,23.149a2.758,2.758,0,0,0,2.982,2.965q7.447,0,14.894,0c.147,0,.294-.013.341-.016a25.755,25.755,0,0,1,.022-2.766A25.084,25.084,0,0,1,155.886-383.334Zm8.461-3.639a7.272,7.272,0,0,0-7.288,7.228,7.275,7.275,0,0,0,7.259,7.3,7.288,7.288,0,0,0,7.274-7.294A7.29,7.29,0,0,0,164.347-386.974Z" transform="translate(0 0)" fill="#fff"/>
    <path id="Path_220" data-name="Path 220" d="M185.992-357.61l2.882-2.3c.3-.239.595-.482.9-.716a.934.934,0,0,1,1.389.092.924.924,0,0,1-.231,1.344q-2.156,1.729-4.318,3.45a.944.944,0,0,1-1.49-.078q-.785-.779-1.564-1.564a.94.94,0,0,1-.113-1.419c.409-.4.925-.36,1.421.124.345.337.685.679,1.027,1.018A.819.819,0,0,0,185.992-357.61Z" transform="translate(-42.458 -42.431)" fill="#fff"/>
    <path id="Path_221" data-name="Path 221" d="M291.845-343.242q-2,0-4,0a.916.916,0,0,1-.933-.607.823.823,0,0,1,.286-1.025,1.259,1.259,0,0,1,.664-.22q4-.022,8-.006a.91.91,0,0,1,.985.936.919.919,0,0,1-1,.92C294.511-343.236,293.178-343.242,291.845-343.242Z" transform="translate(-134.341 -56.423)" fill="#fff"/>
    <path id="Path_222" data-name="Path 222" d="M292.04-273.113c1.332,0,2.664-.01,4,0a.915.915,0,0,1,.909,1.348.908.908,0,0,1-.847.474q-4.018.007-8.036,0a.894.894,0,0,1-.974-.9.9.9,0,0,1,1-.92C289.4-273.121,290.722-273.113,292.04-273.113Z" transform="translate(-134.558 -120.224)" fill="#fff"/>
    <path id="Path_223" data-name="Path 223" d="M186.008-285.623l3.665-2.93c.078-.062.153-.127.233-.185a.9.9,0,0,1,1.293.112.894.894,0,0,1-.179,1.314q-2.216,1.791-4.449,3.56a.885.885,0,0,1-1.3-.075q-.869-.845-1.714-1.715a.892.892,0,0,1-.04-1.326.909.909,0,0,1,1.328.055C185.232-286.436,185.6-286.042,186.008-285.623Z" transform="translate(-42.524 -106.186)" fill="#fff"/>
    <path id="Path_224" data-name="Path 224" d="M186.018-213.775c1.283-1.027,2.506-2.014,3.742-2.986a1.71,1.71,0,0,1,.668-.336.84.84,0,0,1,.914.543.868.868,0,0,1-.284,1.066c-.778.639-1.568,1.262-2.354,1.891q-1.012.81-2.027,1.618a.939.939,0,0,1-1.459-.066q-.8-.792-1.594-1.594a.913.913,0,0,1-.088-1.387.921.921,0,0,1,1.358.1C185.268-214.563,185.626-214.18,186.018-213.775Z" transform="translate(-42.536 -169.859)" fill="#fff"/>
    <path id="Path_225" data-name="Path 225" d="M354.536-172.895c1.26-1.26,2.471-2.472,3.684-3.682a2.568,2.568,0,0,1,.381-.337.9.9,0,0,1,1.1.109.89.89,0,0,1,.161,1.09,1.871,1.871,0,0,1-.294.36q-2.086,2.092-4.177,4.179c-.623.622-1.048.625-1.662.013q-1.249-1.246-2.493-2.5a.879.879,0,0,1-.2-1.086.846.846,0,0,1,.955-.469,1.453,1.453,0,0,1,.6.359C353.241-174.223,353.869-173.57,354.536-172.895Z" transform="translate(-191.134 -205.363)" fill="#fff"/>
  </g>
</svg>
