<?xml version="1.0" encoding="utf-8"?>
<!-- Generator: Adobe Illustrator 25.1.0, SVG Export Plug-In . SVG Version: 6.00 Build 0)  -->
<svg version="1.1" id="Layer_1" xmlns="http://www.w3.org/2000/svg" xmlns:xlink="http://www.w3.org/1999/xlink" x="0px" y="0px"
	 viewBox="0 0 62 242" style="enable-background:new 0 0 62 242;" xml:space="preserve">
<style type="text/css">
	.st0{fill:#C8C8C8;}
</style>
<g id="Mask_Group_3">
	<path id="Path_3" class="st0" d="M23.3,9.6C23.2,9.9,23,10,22.7,9.9s-0.4-0.4-0.3-0.6c0,0,0,0,0,0L23.3,9.6z M19.1,18.3
		c0.1-0.3,0.4-0.4,0.6-0.3c0.3,0.1,0.4,0.4,0.3,0.6c0,0,0,0,0,0L19.1,18.3z M17.2,27.8c-0.1,0.3-0.3,0.4-0.6,0.4
		c-0.3-0.1-0.4-0.3-0.4-0.6c0,0,0,0,0,0L17.2,27.8z M13.8,36.8c0.1-0.3,0.3-0.4,0.6-0.4c0.3,0.1,0.4,0.3,0.4,0.6l0,0L13.8,36.8z
		 M12.7,46.4c-0.1,0.3-0.3,0.4-0.6,0.4s-0.4-0.3-0.4-0.6L12.7,46.4z M9.9,55.7c0-0.3,0.3-0.5,0.6-0.4s0.5,0.3,0.4,0.6c0,0,0,0,0,0
		L9.9,55.7z M9.5,65.3c0,0.3-0.3,0.5-0.6,0.4c-0.3,0-0.5-0.3-0.4-0.6L9.5,65.3z M7.3,74.8c0-0.3,0.3-0.5,0.6-0.4
		c0.3,0,0.5,0.3,0.4,0.5L7.3,74.8z M7.5,84.4c0,0.3-0.3,0.5-0.5,0.5c-0.3,0-0.5-0.3-0.5-0.5L7.5,84.4z M5.8,94
		c0-0.3,0.3-0.5,0.5-0.5s0.5,0.3,0.5,0.5L5.8,94z M6.4,103.6c0,0.3-0.2,0.5-0.5,0.5s-0.5-0.2-0.5-0.5L6.4,103.6z M5.2,113.2
		c0-0.3,0.2-0.5,0.5-0.5c0.3,0,0.5,0.2,0.5,0.5L5.2,113.2z M6.3,122.8c0,0.3-0.2,0.5-0.5,0.5c-0.3,0-0.5-0.2-0.5-0.5L6.3,122.8z
		 M5.5,132.5c0-0.3,0.2-0.5,0.5-0.5s0.5,0.2,0.5,0.5L5.5,132.5z M6.9,142c0,0.3-0.2,0.5-0.5,0.5s-0.5-0.2-0.5-0.5L6.9,142z
		 M6.5,151.7c0-0.3,0.2-0.5,0.5-0.5c0.3,0,0.5,0.2,0.5,0.5L6.5,151.7z M8.4,161.2c0,0.3-0.2,0.5-0.4,0.6s-0.5-0.2-0.6-0.4L8.4,161.2
		z M8.4,170.9c0-0.3,0.2-0.5,0.4-0.6c0.3,0,0.5,0.2,0.6,0.4c0,0,0,0,0,0L8.4,170.9z M10.6,180.3c0,0.3-0.2,0.5-0.4,0.6
		c-0.3,0-0.5-0.2-0.6-0.4l0,0L10.6,180.3z M11,189.9c0-0.3,0.1-0.5,0.4-0.6c0.3,0,0.5,0.1,0.6,0.4L11,189.9z M13.7,199.2
		c0.1,0.3-0.1,0.5-0.4,0.6s-0.5-0.1-0.6-0.4l0,0L13.7,199.2z M14.6,208.9c0-0.3,0.1-0.5,0.4-0.6c0.3,0,0.5,0.1,0.6,0.4L14.6,208.9z
		 M17.8,218c0.1,0.3-0.1,0.5-0.4,0.6c-0.3,0.1-0.5-0.1-0.6-0.4l0,0L17.8,218z M19.3,227.5c-0.1-0.3,0.1-0.5,0.3-0.6
		c0.3-0.1,0.5,0.1,0.6,0.3L19.3,227.5z M25.2,5.2c-0.6,1.5-1.2,2.9-1.8,4.4l-0.9-0.4c0.6-1.5,1.2-3,1.8-4.4L25.2,5.2z M20,18.6
		c-1,3-2,6-2.9,9.1l-1-0.3c0.9-3.1,1.8-6.2,2.9-9.2L20,18.6z M14.7,37c-0.7,3.1-1.4,6.2-2.1,9.4l-1-0.2c0.6-3.2,1.3-6.3,2.1-9.4
		L14.7,37z M10.9,55.9c-0.5,3.1-1,6.3-1.4,9.5l-1-0.1c0.4-3.2,0.9-6.4,1.4-9.5L10.9,55.9z M8.3,74.9c-0.3,3.2-0.6,6.4-0.9,9.6
		l-1-0.1C6.7,81.2,7,78,7.3,74.8L8.3,74.9z M6.8,94c-0.2,3.2-0.3,6.4-0.4,9.6l-1,0c0.1-3.2,0.2-6.4,0.4-9.6L6.8,94z M6.2,113.2
		c0,3.2,0,6.4,0,9.6l-1,0c0-3.2-0.1-6.4,0-9.6L6.2,113.2z M6.5,132.4c0.1,3.2,0.3,6.4,0.4,9.6l-1,0.1c-0.2-3.2-0.3-6.4-0.4-9.6
		L6.5,132.4z M7.5,151.6c0.2,3.2,0.5,6.4,0.8,9.6l-1,0.1c-0.3-3.2-0.6-6.4-0.8-9.6L7.5,151.6z M9.4,170.7c0.4,3.2,0.8,6.4,1.2,9.5
		l-1,0.1c-0.4-3.1-0.8-6.3-1.2-9.6L9.4,170.7z M12,189.8c0.5,3.2,1.1,6.4,1.7,9.5l-1,0.2c-0.6-3.1-1.1-6.2-1.7-9.5L12,189.8z
		 M15.6,208.7c0.7,3.2,1.4,6.4,2.2,9.4l-1,0.2c-0.8-3-1.5-6.1-2.2-9.4L15.6,208.7z M20.3,227.3c0.5,1.6,0.9,3.1,1.4,4.6l-1,0.3
		c-0.5-1.5-0.9-3-1.4-4.6L20.3,227.3z"/>
</g>
</svg>
